<svg class="animated" id="freepik_stories-breakfast-from-bed" xmlns="http://www.w3.org/2000/svg" viewBox="0 0 500 500" version="1.1" xmlns:xlink="http://www.w3.org/1999/xlink" xmlns:svgjs="http://svgjs.com/svgjs"><style>svg#freepik_stories-breakfast-from-bed:not(.animated) .animable {opacity: 0;}svg#freepik_stories-breakfast-from-bed.animated #freepik--Characters--inject-132 {animation: 0.7s 1 forwards ease-out slideUp;animation-delay: 0s;}svg#freepik_stories-breakfast-from-bed.animated #freepik--Food--inject-132 {animation: 0.7s 1 forwards cubic-bezier(.36,-0.01,.5,1.38) slideDown;animation-delay: 0.7s;opacity: 0}            @keyframes slideUp {                0% {                    opacity: 0;                    transform: translateY(30px);                }                100% {                    opacity: 1;                    transform: inherit;                }            }                    @keyframes slideDown {                0% {                    opacity: 0;                    transform: translateY(-30px);                }                100% {                    opacity: 1;                    transform: translateY(0);                }            }        .animator-hidden { display: none; }</style><g id="freepik--background-simple--inject-132" class="animable animator-hidden" style="transform-origin: 252.184px 269.035px;"><path d="M335.71,69.36s-78.8-28-156.15,16.59S63.19,219.12,29.67,290.05,15.45,433.14,74.49,466s99.2-15.6,182-18,105.11,9.48,173.85-37.31,81.16-157.31,26.94-239.08S335.71,69.36,335.71,69.36Z" style="fill: #FFC53B; transform-origin: 252.184px 269.035px;" id="elbj4cef8xp3r" class="animable"></path><g id="eldmm43djqkq"><path d="M335.71,69.36s-78.8-28-156.15,16.59S63.19,219.12,29.67,290.05,15.45,433.14,74.49,466s99.2-15.6,182-18,105.11,9.48,173.85-37.31,81.16-157.31,26.94-239.08S335.71,69.36,335.71,69.36Z" style="fill: rgb(255, 255, 255); opacity: 0.8; transform-origin: 252.184px 269.035px;" class="animable" id="elyctjb0lg6h"></path></g></g><g id="freepik--Floor--inject-132" class="animable" style="transform-origin: 249.305px 431.54px;"><rect x="4.23" y="431.04" width="490.15" height="1" style="fill: rgb(38, 50, 56); transform-origin: 249.305px 431.54px;" id="el70690cyoekr" class="animable"></rect></g><g id="freepik--Pictures--inject-132" class="animable animator-hidden" style="transform-origin: 255.42px 80.665px;"><path d="M309.89,143.77H201V17.56H309.89Zm-107.93-1H308.89V18.56H202Z" style="fill: rgb(38, 50, 56); transform-origin: 255.445px 80.665px;" id="eles0131oer3" class="animable"></path><path d="M303.56,136.42H207.29V24.91h96.27Zm-95.27-1h94.27V25.91H208.29Z" style="fill: rgb(38, 50, 56); transform-origin: 255.425px 80.665px;" id="el5em9s10vh1n" class="animable"></path><path d="M277,105.66H233.81v-50H277Zm-42.23-1H276v-48H234.81Z" style="fill: rgb(38, 50, 56); transform-origin: 255.405px 80.66px;" id="elsypsvccpqu" class="animable"></path><path d="M469.84,134.56h-64.1V60.35h64.1Zm-63.1-1h62.1V61.35h-62.1Z" style="fill: rgb(38, 50, 56); transform-origin: 437.79px 97.455px;" id="elgjw5ra3vqlq" class="animable"></path><path d="M466.14,130.27h-56.7V64.65h56.7Zm-55.7-1h54.7V65.65h-54.7Z" style="fill: rgb(38, 50, 56); transform-origin: 437.79px 97.46px;" id="eln43jiuvpnbe" class="animable"></path><path d="M450.64,112.28h-25.7V82.64h25.7Zm-24.7-1h23.7V83.64h-23.7Z" style="fill: rgb(38, 50, 56); transform-origin: 437.79px 97.46px;" id="el2rywha7an4o" class="animable"></path><path d="M105.11,134.56H41V60.35h64.1Zm-63.1-1h62.1V61.35H42Z" style="fill: rgb(38, 50, 56); transform-origin: 73.055px 97.455px;" id="elghpp77v9kci" class="animable"></path><path d="M101.41,130.27H44.71V64.65h56.7Zm-55.7-1h54.7V65.65H45.71Z" style="fill: rgb(38, 50, 56); transform-origin: 73.06px 97.46px;" id="elsxbe200ktap" class="animable"></path><path d="M85.91,112.28H60.21V82.64h25.7Zm-24.7-1h23.7V83.64H61.21Z" style="fill: rgb(38, 50, 56); transform-origin: 73.06px 97.46px;" id="elkf8hci9aoc" class="animable"></path></g><g id="freepik--Furnitures--inject-132" class="animable" style="transform-origin: 251.075px 326.725px;"><g id="el82u1ef5rf6o"><rect x="368.71" y="306.07" width="114.33" height="7.28" style="fill: #FFC53B; transform-origin: 425.875px 309.71px; transform: rotate(180deg);" class="animable" id="el4rdypqlvq64"></rect></g><path d="M483.54,313.85H368.21v-8.28H483.54Zm-114.33-1H482.54v-6.28H369.21Z" style="fill: rgb(38, 50, 56); transform-origin: 425.875px 309.71px;" id="el7pz9nki3yp4" class="animable"></path><g id="elc1r8ayo4ddn"><rect x="374.01" y="313.53" width="103.73" height="118.01" style="fill: rgb(38, 50, 56); transform-origin: 425.875px 372.535px; transform: rotate(180deg);" class="animable" id="elle7n3nzmldd"></rect></g><path d="M478.24,432H373.51V313H478.24Zm-103.73-1H477.24V314H374.51Z" style="fill: rgb(38, 50, 56); transform-origin: 425.875px 372.5px;" id="elgjwk2ghe9lu" class="animable"></path><g id="el62rozn1lrx"><rect x="377.74" y="321.22" width="96.38" height="35.88" style="fill: #FFC53B; transform-origin: 425.93px 339.16px; transform: rotate(180deg);" class="animable" id="elv43n5uj61co"></rect></g><path d="M474.63,357.6H377.24V320.72h97.39Zm-96.39-1h95.39V321.72H378.24Z" style="fill: rgb(38, 50, 56); transform-origin: 425.935px 339.16px;" id="elzknqawgxha" class="animable"></path><g id="elfm0vgypbj6c"><rect x="421.28" y="335.86" width="9.64" height="6.61" style="fill: rgb(38, 50, 56); transform-origin: 426.1px 339.165px; transform: rotate(180deg);" class="animable" id="el4eazo40hzs4"></rect></g><path d="M430.92,343h-9.64a.51.51,0,0,1-.5-.5v-6.61a.5.5,0,0,1,.5-.5h9.64a.5.5,0,0,1,.5.5v6.61A.5.5,0,0,1,430.92,343Zm-9.14-1h8.64v-5.61h-8.64Z" style="fill: rgb(38, 50, 56); transform-origin: 426.1px 339.195px;" id="elqqcp4tvd29" class="animable"></path><g id="elt9hfb3l0z9"><rect x="377.74" y="366.55" width="96.38" height="35.88" style="fill: #FFC53B; transform-origin: 425.93px 384.49px; transform: rotate(180deg);" class="animable" id="elat01bpqtwh"></rect></g><path d="M474.63,402.93H377.24V366.05h97.39Zm-96.39-1h95.39V367.05H378.24Z" style="fill: rgb(38, 50, 56); transform-origin: 425.935px 384.49px;" id="elrzl5cn8dim" class="animable"></path><g id="el5pozio6xe7g"><rect x="421.28" y="381.18" width="9.64" height="6.61" style="fill: rgb(38, 50, 56); transform-origin: 426.1px 384.485px; transform: rotate(180deg);" class="animable" id="elhpq6f4k8qvd"></rect></g><path d="M430.92,388.29h-9.64a.5.5,0,0,1-.5-.5v-6.61a.51.51,0,0,1,.5-.5h9.64a.5.5,0,0,1,.5.5v6.61A.5.5,0,0,1,430.92,388.29Zm-9.14-1h8.64v-5.61h-8.64Z" style="fill: rgb(38, 50, 56); transform-origin: 426.1px 384.485px;" id="el15o63cqzptx" class="animable"></path><polygon points="450.36 302.77 450.36 276.98 459.17 276.98 459.17 302.77 471.76 302.77 471.76 305.86 459.17 305.86 450.36 305.86 437.76 305.86 437.76 302.77 450.36 302.77" style="fill: rgb(255, 255, 255); transform-origin: 454.76px 291.42px;" id="elbyd25ybgjao" class="animable"></polygon><path d="M472.26,306.36h-35v-4.09h12.59V276.48h9.82v25.79h12.59Zm-34-1h33v-2.09H458.67V277.48h-7.82v25.79H438.26Z" style="fill: rgb(38, 50, 56); transform-origin: 454.76px 291.42px;" id="elibif01tifs" class="animable"></path><polygon points="427.77 279.46 481.75 279.46 473.65 221.91 435.87 221.91 427.77 279.46" style="fill: #FFC53B; transform-origin: 454.76px 250.685px;" id="el02ncfu5982ia" class="animable"></polygon><path d="M482.33,280H427.2l8.23-58.55h38.66Zm-54-1h52.83l-8-56.55H436.3Z" style="fill: rgb(38, 50, 56); transform-origin: 454.765px 250.725px;" id="el9phuf9c7uvn" class="animable"></path><rect x="19.11" y="306.07" width="114.33" height="7.28" style="fill: #FFC53B; transform-origin: 76.275px 309.71px;" id="el5j6qmuqelvs" class="animable"></rect><path d="M133.94,313.85H18.61v-8.28H133.94Zm-114.33-1H132.94v-6.28H19.61Z" style="fill: rgb(38, 50, 56); transform-origin: 76.275px 309.71px;" id="elxufeq4hbnhh" class="animable"></path><rect x="24.42" y="313.53" width="103.73" height="118.01" style="fill: rgb(38, 50, 56); transform-origin: 76.285px 372.535px;" id="el76k4x7elalp" class="animable"></rect><path d="M128.64,432H23.92V313H128.64ZM24.92,431H127.64V314H24.92Z" style="fill: rgb(38, 50, 56); transform-origin: 76.28px 372.5px;" id="el6xqk8lbefmg" class="animable"></path><rect x="28.03" y="321.22" width="96.38" height="35.88" style="fill: #FFC53B; transform-origin: 76.22px 339.16px;" id="el1bh8t5y1tik" class="animable"></rect><path d="M124.91,357.6H27.53V320.72h97.38Zm-96.38-1h95.38V321.72H28.53Z" style="fill: rgb(38, 50, 56); transform-origin: 76.22px 339.16px;" id="elyrnojn0lw5h" class="animable"></path><rect x="71.23" y="335.86" width="9.64" height="6.61" style="fill: rgb(38, 50, 56); transform-origin: 76.05px 339.165px;" id="el87of5kkgz8s" class="animable"></rect><path d="M80.87,343H71.23a.51.51,0,0,1-.5-.5v-6.61a.5.5,0,0,1,.5-.5h9.64a.5.5,0,0,1,.5.5v6.61A.5.5,0,0,1,80.87,343Zm-9.14-1h8.64v-5.61H71.73Z" style="fill: rgb(38, 50, 56); transform-origin: 76.05px 339.195px;" id="elrk11adddjv" class="animable"></path><rect x="28.03" y="366.55" width="96.38" height="35.88" style="fill: #FFC53B; transform-origin: 76.22px 384.49px;" id="el4b1ntdivpzb" class="animable"></rect><path d="M124.91,402.93H27.53V366.05h97.38Zm-96.38-1h95.38V367.05H28.53Z" style="fill: rgb(38, 50, 56); transform-origin: 76.22px 384.49px;" id="el136hubgnqxxr" class="animable"></path><rect x="71.23" y="381.18" width="9.64" height="6.61" style="fill: rgb(38, 50, 56); transform-origin: 76.05px 384.485px;" id="ell7jdebex9vi" class="animable"></rect><path d="M80.87,388.29H71.23a.5.5,0,0,1-.5-.5v-6.61a.51.51,0,0,1,.5-.5h9.64a.5.5,0,0,1,.5.5v6.61A.5.5,0,0,1,80.87,388.29Zm-9.14-1h8.64v-5.61H71.73Z" style="fill: rgb(38, 50, 56); transform-origin: 76.05px 384.485px;" id="elakl22yp7cds" class="animable"></path><polygon points="51.8 302.77 51.8 276.98 42.99 276.98 42.99 302.77 30.39 302.77 30.39 305.86 42.99 305.86 51.8 305.86 64.39 305.86 64.39 302.77 51.8 302.77" style="fill: rgb(255, 255, 255); transform-origin: 47.39px 291.42px;" id="el2xime7luf3b" class="animable"></polygon><path d="M64.89,306.36h-35v-4.09H42.49V276.48H52.3v25.79H64.89Zm-34-1h33v-2.09H51.3V277.48H43.49v25.79H30.9Z" style="fill: rgb(38, 50, 56); transform-origin: 47.39px 291.42px;" id="elth3mjvsrox" class="animable"></path><polygon points="74.38 279.46 20.4 279.46 28.5 221.91 66.28 221.91 74.38 279.46" style="fill: #FFC53B; transform-origin: 47.39px 250.685px;" id="el7odshfaeo8n" class="animable"></polygon><path d="M75,280H19.83l8.24-58.55H66.72Zm-54-1H73.81l-8-56.55H28.93Z" style="fill: rgb(38, 50, 56); transform-origin: 47.415px 250.725px;" id="el8kuc0za38eh" class="animable"></path></g><g id="freepik--Characters--inject-132" class="animable" style="transform-origin: 251.084px 306.611px;"><path d="M157.09,213.44s-50.9,4.72-50.17,9.09S116,236,116,236s.73,47.25,1.09,49.8-1.45,9.81-1.45,9.81l11.26,1.09s43.26-2.91,54.89-3.63,37.81-2.91,39.26-3.64-1.45-6.54-1.45-6.54l-5.09-53.07s2.91-9.09,2.91-10.91-3.27-1.45-3.27-1.45-19.27-1.82-33.45-3.27A145.45,145.45,0,0,0,157.09,213.44Z" style="fill: #FFC53B; transform-origin: 164.184px 254.981px;" id="elufpbsbecgjf" class="animable"></path><path d="M127,297.18,115,296l.14-.56c0-.07,1.79-7.2,1.44-9.62s-1-46-1.09-49.68c-1.1-1.21-8.38-9.35-9.08-13.56a1.18,1.18,0,0,1,.26-.93c3.28-4.25,45.54-8.29,50.35-8.74h0a148.2,148.2,0,0,1,23.71.73c13.67,1.4,32.3,3.16,33.39,3.26.4,0,2.27-.16,3.22.69a1.69,1.69,0,0,1,.56,1.27c0,1.79-2.49,9.65-2.9,11l5.07,52.88c1,1.93,2.88,6.28,1.19,7.13s-30,3.1-39.46,3.68C170.34,294.26,127.38,297.15,127,297.18Zm-10.68-2,10.69,1c.35,0,43.31-2.91,54.81-3.63,12.67-.79,37.69-2.94,39.07-3.59.46-.23-.17-2.84-1.68-5.87l0-.17L214,229.74l0-.1c.81-2.5,2.89-9.32,2.89-10.75a.65.65,0,0,0-.23-.52,4,4,0,0,0-2.49-.44h-.1c-.19,0-19.43-1.83-33.45-3.27a146.69,146.69,0,0,0-23.53-.72c-18.71,1.73-47.37,5.39-49.64,8.35a.31.31,0,0,0-.08.15c.7,4.17,8.88,13.11,9,13.2l.13.14V236c0,.47.73,47.25,1.08,49.74C117.91,287.92,116.69,293.37,116.27,295.15Z" style="fill: rgb(38, 50, 56); transform-origin: 164.168px 254.955px;" id="eli8bkn4o29p" class="animable"></path><path d="M328.78,224.55s-51.11-.74-50.85,3.67,7.6,14.35,7.6,14.35-4.33,47.06-4.24,49.63-2.5,9.6-2.5,9.6l11.09,2.29s43.32,1.73,55,2.25,37.9,1.15,39.43.59-.75-6.67-.75-6.67V242.44s3.86-8.72,4.06-10.53-3.1-1.8-3.1-1.8-18.35.65-32.29-2.31A146.41,146.41,0,0,0,328.78,224.55Z" style="fill: #FFC53B; transform-origin: 332.779px 265.826px;" id="elkbyohlmxwyc" class="animable"></path><path d="M377.88,307.65c-9.4,0-26.22-.5-33.06-.81-11.51-.51-54.53-2.23-55-2.25l-11.74-2.42.2-.54c0-.07,2.55-7,2.47-9.42s3.88-45.8,4.22-49.5c-1-1.33-7.33-10.2-7.58-14.46a1.21,1.21,0,0,1,.36-.9c3.72-3.87,46.17-3.37,51-3.3h0a147.43,147.43,0,0,1,23.51,3.26c13.72,2.91,32,2.31,32.16,2.3s2.29,0,3.19,1a1.66,1.66,0,0,1,.43,1.32c-.2,1.78-3.5,9.32-4.06,10.59v57.62c.74,2,2.19,6.56.42,7.22A40.48,40.48,0,0,1,377.88,307.65Zm-98.42-6.22L290,303.6c.35,0,43.38,1.73,54.89,2.24,12.68.57,37.78,1.11,39.22.62.49-.18.14-2.85-1-6l0-.18V242.33l0-.09c1.07-2.41,3.87-9,4-10.39a.65.65,0,0,0-.17-.54,4,4,0,0,0-2.42-.7h0c-.16,0-18.55.62-32.39-2.32a147.15,147.15,0,0,0-23.32-3.24c-18.79-.28-47.67.3-50.25,3a.29.29,0,0,0-.09.15c.24,4.22,7.43,14,7.5,14.08l.11.15v.19c0,.47-4.33,47.06-4.24,49.57C281.87,294.42,280.07,299.7,279.46,301.43Z" style="fill: rgb(38, 50, 56); transform-origin: 332.72px 265.834px;" id="eljetcedbv7us" class="animable"></path><path d="M240.81,212.92s-51.1-.75-50.85,3.67,7.6,14.34,7.6,14.34-4.33,47.07-4.24,49.63-2.49,9.61-2.49,9.61l11.08,2.29s43.32,1.73,55,2.25,37.89,1.15,39.42.58-.75-6.66-.75-6.66l.62-53.31s3.86-8.72,4.05-10.53-3.09-1.8-3.09-1.8-19-3.86-32.91-6.82A145,145,0,0,0,240.81,212.92Z" style="fill: #FFC53B; transform-origin: 245.108px 254.194px;" id="elbxu2d36o7em" class="animable"></path><path d="M289.9,296c-9.4,0-26.21-.5-33-.81-11.51-.51-54.52-2.24-55-2.25l-11.73-2.42.2-.54c0-.07,2.55-7,2.46-9.42s3.88-45.8,4.22-49.5c-1-1.33-7.33-10.2-7.58-14.46a1.19,1.19,0,0,1,.37-.9c3.71-3.88,46.16-3.37,51-3.3h0a147.43,147.43,0,0,1,23.51,3.26c13.43,2.85,31.77,6.59,32.85,6.81.39,0,2.26.08,3.12,1a1.66,1.66,0,0,1,.42,1.32c-.19,1.78-3.5,9.33-4.05,10.59l-.62,53.11c.75,2,2.19,6.56.42,7.22A41.89,41.89,0,0,1,289.9,296Zm-98.41-6.23L202,292c.36,0,43.38,1.73,54.89,2.24,12.68.57,37.79,1.1,39.22.61.49-.18.14-2.85-1-6l0-.09v-.09l.62-53.42,0-.09c1.06-2.41,3.86-9,4-10.38a.67.67,0,0,0-.17-.55,4.14,4.14,0,0,0-2.43-.7H297c-.19,0-19.13-3.9-32.91-6.83a146.31,146.31,0,0,0-23.32-3.23c-18.79-.28-47.67.3-50.25,3a.29.29,0,0,0-.09.15c.25,4.22,7.43,14,7.5,14.08l.11.15V231c-.05.47-4.33,47.06-4.24,49.57C193.9,282.79,192.1,288.07,191.49,289.79Z" style="fill: rgb(38, 50, 56); transform-origin: 245.111px 254.183px;" id="eln6gygralpxm" class="animable"></path><path d="M199.1,192.49S180.93,200,174,202.58s-12.13.43-16.9,9.1a52.82,52.82,0,0,0-5.63,18.42s-12.57,28.6-12.57,30.76,4.55,8.24,9.31,6.94,20.59-24.49,20.59-24.49l3.47,49.41s19.71,6.28,32.06,5,36.19-13,36.19-13,11.7-2.6,12.78-2.6h2.39s-3-23-3.9-27.09,2.6-27.95-.22-36.61c-2.15-6.6-7.37-8.24-12.14-10.62s-20.8-10-25.56-11.48S199.1,192.49,199.1,192.49Z" style="fill: rgb(255, 255, 255); transform-origin: 197.295px 245.191px;" id="eld1os3b49ylp" class="animable"></path><path d="M200.74,298.37c-12.21,0-28.45-5.12-28.63-5.18l-.32-.1-3.39-48.32c-3.34,4.81-15.75,22.34-20.05,23.51a7,7,0,0,1-6-1.53c-2.35-1.79-3.92-4.49-3.92-5.89,0-2.19,11.14-27.63,12.58-30.89a53.79,53.79,0,0,1,5.68-18.53c3.5-6.37,7.27-7.09,11.64-7.92a31.35,31.35,0,0,0,5.52-1.41c6.85-2.57,24.91-10,25.09-10.08l.15-.06.15,0c.1,0,10.08,2.31,14.81,3.82,4.95,1.57,21.34,9.36,25.64,11.51.62.31,1.24.61,1.87.9,4.22,2,8.58,4.07,10.51,10,1.82,5.58,1.1,16.93.52,26-.32,4.92-.59,9.18-.29,10.62.87,4.09,3.79,26.18,3.91,27.12l.08.57h-3c-.75,0-7.93,1.53-12.62,2.57-1.56.77-24.17,11.75-36.29,13A35.75,35.75,0,0,1,200.74,298.37Zm-28-6c2.6.8,20.29,6.05,31.54,4.86,12.12-1.27,35.78-12.83,36-12.95l.11,0c1.2-.27,11.79-2.61,12.89-2.61h1.82c-.48-3.56-3.05-22.79-3.82-26.48-.34-1.58-.07-5.69.26-10.9.54-8.55,1.29-20.27-.47-25.67s-5.78-7.42-10-9.41l-1.89-.91c-4.28-2.14-20.59-9.9-25.49-11.46-4.37-1.39-13.29-3.46-14.57-3.76-1.75.72-18.44,7.59-25,10a33.14,33.14,0,0,1-5.69,1.46c-4.28.81-7.67,1.45-10.94,7.41A52.91,52.91,0,0,0,152,230.14l0,.16c-5,11.46-12.52,29.05-12.52,30.56,0,1,1.34,3.43,3.52,5.1a6,6,0,0,0,5.16,1.36c3.77-1,15.94-17.88,20.31-24.29l.81-1.19Z" style="fill: rgb(38, 50, 56); transform-origin: 197.36px 245.17px;" id="elqo89ndp7fb" class="animable"></path><path d="M157.32,233.13a17.5,17.5,0,0,0-6.9-.65c-3,6.9-11.52,26.6-11.52,28.38,0,2.17,4.55,8.24,9.31,6.94s20.59-24.49,20.59-24.49A16.44,16.44,0,0,0,157.32,233.13Z" style="fill: rgb(255, 255, 255); transform-origin: 153.85px 250.182px;" id="ell9adjaje2mk" class="animable"></path><path d="M146.85,268.48a7.61,7.61,0,0,1-4.53-1.73c-2.35-1.79-3.92-4.49-3.92-5.89,0-1.78,7.25-18.67,11.56-28.58l.12-.26.27,0a18.2,18.2,0,0,1,7.09.67h0a16.79,16.79,0,0,1,11.84,10.52l.07.23-.14.2c-.65,1-16,23.35-20.86,24.68A5.63,5.63,0,0,1,146.85,268.48Zm3.92-35.54c-7,16.11-11.37,26.8-11.37,27.92s1.34,3.43,3.52,5.1a6,6,0,0,0,5.16,1.36c3.73-1,15.68-17.52,20.16-24.08a16.16,16.16,0,0,0-11.05-9.63A17.82,17.82,0,0,0,150.77,232.94Z" style="fill: rgb(38, 50, 56); transform-origin: 153.875px 250.203px;" id="elkgw2oi02fdq" class="animable"></path><path d="M253.3,282.1h2.39s-3-23-3.9-27.09a21.7,21.7,0,0,1-.09-4.48,11.16,11.16,0,0,0-4.9-1.15c-4.33,0-6.28,1.3-6.28,1.3s-.44,15.82-.44,19.72c0,3.38,1.47,11.8,1.86,14C245.09,283.69,252.45,282.1,253.3,282.1Z" style="fill: rgb(255, 255, 255); transform-origin: 247.885px 266.89px;" id="elft1la3z5uel" class="animable"></path><path d="M241.54,285l-.09-.51c-.44-2.44-1.87-10.68-1.87-14.07,0-3.86.43-19.57.44-19.73v-.26l.21-.15c.09,0,2.13-1.38,6.56-1.38a11.58,11.58,0,0,1,5.12,1.2l.29.14v.33a24.37,24.37,0,0,0,.07,4.36c.87,4.09,3.79,26.18,3.91,27.12l.08.57h-3c-.55,0-4.75.85-11.25,2.27ZM241,251c-.06,2.15-.43,15.86-.43,19.42,0,3.1,1.25,10.48,1.76,13.39,4.68-1,10.18-2.19,11-2.19h1.82c-.48-3.56-3.05-22.79-3.82-26.48a20,20,0,0,1-.11-4.28,10.6,10.6,0,0,0-4.39-1A12.87,12.87,0,0,0,241,251Z" style="fill: rgb(38, 50, 56); transform-origin: 247.92px 266.95px;" id="elzum95o3da4" class="animable"></path><path d="M242.47,233.84A31.37,31.37,0,0,0,242,230l1-.2a31.71,31.71,0,0,1,.5,4Z" style="fill: rgb(38, 50, 56); transform-origin: 242.75px 231.82px;" id="elc06pb6il669" class="animable"></path><path d="M241,250.79l-1-.22c0-.09,1.95-8.9,2.37-12.73l1,.11C243,241.83,241.09,250.42,241,250.79Z" style="fill: rgb(38, 50, 56); transform-origin: 241.685px 244.315px;" id="elc569mm3oe6f" class="animable"></path><path d="M241.66,166.2s-.1,10.32-.92,12.23-3.14,4.78-3,5.18,1.91,6.42,1.63,7.51-5.32,1.78-5.32,1.78-2.18,8.73-3,10-4.23,1.91-5.19,1.5l-1.91-.81s-1.78,7.64-5.19,10.92-14.47,5.59-20.2-3.14.54-18.84.54-18.84l3.14-8.6A97.15,97.15,0,0,1,198,173c-1.23-4.37-1.09-11.2,2.19-16.11s9-10.24,14.47-10.79,16.92,2.32,19,3.55l2.05,1.23s-.14-3,1.64-2.32,4.91,8.19,4.64,11.6S241.66,166.2,241.66,166.2Z" style="fill: rgb(255, 255, 255); transform-origin: 219.076px 181.74px;" id="eluh7dsclou4" class="animable"></path><path d="M209.93,217.91a14.79,14.79,0,0,1-1.75-.1,13.49,13.49,0,0,1-10-6.21c-5.64-8.59.05-18.55.51-19.33l3-8.36a96.25,96.25,0,0,1-4.17-10.81c-1.29-4.6-1.1-11.49,2.25-16.52s9.28-10.45,14.84-11,17.24,2.39,19.28,3.61l1.33.8a2.56,2.56,0,0,1,.83-1.81,1.45,1.45,0,0,1,1.45-.12c2,.79,5.24,8.6,5,12.11-.27,3.35-.31,6-.31,6,0,1.07-.13,10.48-1,12.42a23.82,23.82,0,0,1-1.95,3.31,16.28,16.28,0,0,0-1,1.64c.26.85,1.93,6.44,1.62,7.67s-3.37,1.81-5.41,2.11c-.44,1.76-2.21,8.62-3,9.79-1,1.43-4.63,2.19-5.8,1.68l-1.37-.58c-.49,1.87-2.22,7.74-5.18,10.59C217.41,216.46,213.86,217.91,209.93,217.91Zm6.3-71.41a14.19,14.19,0,0,0-1.51.07c-5.23.52-10.85,5.68-14.11,10.57-3.16,4.73-3.31,11.45-2.12,15.69a98.47,98.47,0,0,0,4.21,10.85l.08.19-3.25,8.88c-.06.1-6,9.94-.55,18.3a12.5,12.5,0,0,0,9.31,5.77c4.29.48,8.34-1,10.13-2.71,3.26-3.14,5-10.6,5-10.68l.14-.58,2.46,1.06c.73.31,3.87-.28,4.57-1.32.57-.85,2.07-6.34,2.94-9.81l.08-.33.33,0c2.41-.32,4.71-1,4.91-1.41.2-.8-1.25-6.08-1.63-7.22-.14-.41.15-.87,1.16-2.4a22.81,22.81,0,0,0,1.86-3.14c.64-1.49.85-9.2.88-12h0s0-2.7.31-6.1c.26-3.24-2.81-10.51-4.32-11.09-.34-.13-.47,0-.51,0-.35.25-.48,1.25-.45,1.84l0,.93-2.85-1.71C231.59,149,222,146.5,216.23,146.5Zm22,37h0Z" style="fill: rgb(38, 50, 56); transform-origin: 219.108px 181.711px;" id="el3bes9km42hh" class="animable"></path><path d="M244.39,162.26c.27-3.41-5.29-13-7.06-13.73s-1.64,2.32-1.64,2.32l-2.05-1.23c-2-1.23-13.51-4.09-19-3.55s-11.2,5.87-14.47,10.79S196.78,168.6,198,173a97.15,97.15,0,0,0,4.23,10.92s1.23,1.36,2.46,1.23a60.79,60.79,0,0,0,6.55-2.19,10,10,0,0,1-1.91-.27c-1.23-.27-4-5.87-.82-10.38s5.33-1.91,5.6-.54,1.77,4,3,3.55,3.81-2.35,3.94-3,7-.32,7.58-1.82-2.18-5.48-2.73-8.48,4-2.72,7-1.22,8.78,5.46,8.78,5.46S244.12,165.67,244.39,162.26Z" style="fill: rgb(38, 50, 56); transform-origin: 220.844px 165.581px;" id="el5b2q30vnksx" class="animable"></path><path d="M204.53,185.63a4.29,4.29,0,0,1-2.66-1.41l-.08-.12a97.24,97.24,0,0,1-4.26-11c-1.29-4.6-1.1-11.49,2.25-16.52s9.28-10.45,14.84-11,17.24,2.39,19.28,3.61l1.33.8a2.56,2.56,0,0,1,.83-1.81,1.45,1.45,0,0,1,1.45-.12c2.17.84,7.66,10.76,7.38,14.24l-.5,0,.5,0c-.3,3.74-3,4.36-3.12,4.39l-.21,0-.18-.12c-.06,0-5.79-4-8.73-5.42-2.17-1.09-4.86-1.37-5.86-.63a1.22,1.22,0,0,0-.39,1.31,21.19,21.19,0,0,0,1.51,4.17c.84,1.9,1.57,3.55,1.2,4.57s-2.49,1.38-5.39,1.64a15.35,15.35,0,0,0-2.23.29c-.47,1.05-3.13,2.86-4.21,3.22a1.51,1.51,0,0,1-1.27-.18,6.53,6.53,0,0,1-2.38-3.74,2.1,2.1,0,0,0-1.43-1.56c-.94-.2-2.1.62-3.27,2.29a8.36,8.36,0,0,0-.78,7.62,3.77,3.77,0,0,0,1.3,2,9.11,9.11,0,0,0,1.8.26l2.66,0-2.48,1a57.21,57.21,0,0,1-6.67,2.21Zm-1.87-2a3,3,0,0,0,2,1,36.17,36.17,0,0,0,4.59-1.47h0c-.81-.18-1.55-1.43-2-2.54a9.35,9.35,0,0,1,.87-8.61c1.81-2.6,3.33-2.9,4.29-2.7a3.08,3.08,0,0,1,2.21,2.34,5.58,5.58,0,0,0,1.9,3.08c.27.15.41.11.45.09a10.14,10.14,0,0,0,3.62-2.66c.12-.63,1-.71,3-.9,1.3-.11,4.32-.39,4.54-1s-.51-2.33-1.17-3.82a21.09,21.09,0,0,1-1.58-4.4,2.15,2.15,0,0,1,.77-2.28c1.52-1.14,4.7-.58,6.91.53,2.72,1.36,7.59,4.63,8.65,5.35.52-.2,1.94-1,2.14-3.43.26-3.18-5.15-12.61-6.74-13.22-.34-.13-.47,0-.51,0-.35.25-.48,1.25-.45,1.84l0,.93-2.85-1.71c-2-1.18-13.25-4-18.66-3.48-5.23.52-10.85,5.68-14.11,10.57-3.16,4.73-3.31,11.45-2.12,15.69A96.72,96.72,0,0,0,202.66,183.61Zm18.89-11.26h0Z" style="fill: rgb(38, 50, 56); transform-origin: 220.845px 165.571px;" id="elcxqya3upvw5" class="animable"></path><path d="M234.62,182c-.35,1-1,1.68-1.47,1.52s-.56-1.1-.21-2.1,1-1.67,1.46-1.51S235,181,234.62,182Z" style="fill: rgb(38, 50, 56); transform-origin: 233.783px 181.715px;" id="elessh7pks8r" class="animable"></path><path d="M236.71,177.84c-1.91-1.8-5.7-.2-5.74-.18l-.39-.92c.17-.08,4.42-1.88,6.82.37Z" style="fill: rgb(38, 50, 56); transform-origin: 233.99px 176.911px;" id="ell83f0zo53zl" class="animable"></path><path d="M231.7,195.73c-3.24,0-5.24-3.94-5.33-4.11l.89-.45s1.93,3.8,4.7,3.55l.09,1Z" style="fill: rgb(38, 50, 56); transform-origin: 229.21px 193.45px;" id="elh82zp3yxfhi" class="animable"></path><path d="M224,203.55a6.37,6.37,0,0,1-3.14-2.05c-1.37-1.64-4.23-4.51-4.23-4.51s1.23,11.06,1.63,12.15S224,203.55,224,203.55Z" style="fill: rgb(38, 50, 56); transform-origin: 220.315px 203.125px;" id="el3xiwgpy13yc" class="animable"></path><path d="M218.35,209.76h-.08a.64.64,0,0,1-.52-.43c-.42-1.12-1.54-11.13-1.67-12.27l-.16-1.42,1,1c.12.12,2.9,2.9,4.26,4.54a6,6,0,0,0,2.87,1.88l.77.18-.49.62C221.22,207.78,219.21,209.76,218.35,209.76Zm-1.11-11.38c.44,3.91,1.06,8.85,1.36,10.26a35.56,35.56,0,0,0,4.51-4.85,7.21,7.21,0,0,1-2.69-2C219.6,200.82,218.19,199.35,217.24,198.38Z" style="fill: rgb(38, 50, 56); transform-origin: 220.37px 202.7px;" id="el9e9ia03xtt8" class="animable"></path><path d="M190.14,226.7c-3.58,0-6.49,4.24-6.49,9.47s2.91,9.47,6.49,9.47,6.5-4.24,6.5-9.47S193.73,226.7,190.14,226.7Zm0,15.77c-2.38,0-4.32-2.82-4.32-6.3s1.94-6.3,4.32-6.3,4.32,2.82,4.32,6.3S192.53,242.47,190.14,242.47Z" style="fill: #FFC53B; transform-origin: 190.145px 236.17px;" id="elmyfy13i8ink" class="animable"></path><path d="M190.14,246.14c-3.85,0-7-4.47-7-10s3.14-10,7-10,7,4.47,7,10S194,246.14,190.14,246.14Zm0-18.94c-3.3,0-6,4-6,9s2.69,9,6,9,6-4,6-9S193.45,227.2,190.14,227.2Zm0,15.77c-2.65,0-4.82-3.05-4.82-6.8s2.17-6.8,4.82-6.8,4.82,3,4.82,6.8S192.8,243,190.14,243Zm0-12.6c-2.1,0-3.82,2.6-3.82,5.8s1.72,5.8,3.82,5.8,3.82-2.6,3.82-5.8S192.25,230.37,190.14,230.37Z" style="fill: rgb(38, 50, 56); transform-origin: 190.14px 236.14px;" id="el3qzs4chmie8" class="animable"></path><polygon points="207.42 251.22 192.23 251.22 190.33 223.08 209.32 223.08 207.42 251.22" style="fill: #FFC53B; transform-origin: 199.825px 237.15px;" id="ell5agfqt3cmi" class="animable"></polygon><path d="M207.88,251.72H191.76l-2-29.14h20.06Zm-15.19-1H207l1.83-27.14H190.86Z" style="fill: rgb(38, 50, 56); transform-origin: 199.79px 237.15px;" id="eljo38fuz0fx" class="animable"></path><path d="M193.85,220.48a34,34,0,0,1-1.13-8.6c0-4.76,3.17-9.29,2-14.49" style="fill: rgb(255, 255, 255); transform-origin: 193.85px 208.935px;" id="elkl9y99am48d" class="animable"></path><path d="M193.85,221a.51.51,0,0,1-.48-.36,34,34,0,0,1-1.15-8.74,22.46,22.46,0,0,1,1.14-6.06c.75-2.66,1.54-5.42.91-8.33a.5.5,0,0,1,.38-.59.5.5,0,0,1,.6.38c.68,3.15-.14,6-.93,8.82a21.12,21.12,0,0,0-1.1,5.78,33.71,33.71,0,0,0,1.11,8.45.5.5,0,0,1-.34.63Z" style="fill: rgb(38, 50, 56); transform-origin: 193.862px 208.954px;" id="ely6p04hcc5oo" class="animable"></path><path d="M201.32,203.05a40.41,40.41,0,0,1-.68,9,12.12,12.12,0,0,0,.45,7.7" style="fill: rgb(255, 255, 255); transform-origin: 200.781px 211.4px;" id="el677qjfwiry7" class="animable"></path><path d="M201.09,220.3a.48.48,0,0,1-.44-.28c-.27-.53-1.53-3.39-.5-8a40.71,40.71,0,0,0,.67-8.92.5.5,0,0,1,1,0,40.66,40.66,0,0,1-.69,9.19c-1,4.31.17,6.89.41,7.36a.5.5,0,0,1-.22.67A.46.46,0,0,1,201.09,220.3Z" style="fill: rgb(38, 50, 56); transform-origin: 200.801px 211.463px;" id="ell8blw0x4h3l" class="animable"></path><path d="M179,227.06l-8.23,11.49S145,249,141.28,252s-4.77,8.88-3.25,11.92,6.5,6.06,9.53,5.85,8.11-3.41,10.49-6S174,248.08,174,248.08s3.9,0,4.77-.87a46.33,46.33,0,0,1,4.11-3,1.63,1.63,0,0,0,2.6,0c1.3-1.52,2.39-2.38,2.39-3.25s-.22-6.07-.22-6.07,2.38-3.25,1.52-3.9-6.07-4.33-7.15-4.55S180.28,225.76,179,227.06Z" style="fill: rgb(255, 255, 255); transform-origin: 163.358px 247.979px;" id="elxtt5rk6x8yj" class="animable"></path><path d="M147.25,270.26c-3.27,0-8.12-3-9.67-6.14-1.62-3.26-.53-9.31,3.38-12.53,3.6-3,27.23-12.55,29.47-13.45l8.2-11.43a2.69,2.69,0,0,1,3.06-.89l.42.1c1.35.27,7.3,4.6,7.36,4.64,1.06.8-.32,3.07-1.31,4.46,0,.92.21,5.12.21,5.91s-.66,1.54-1.56,2.52c-.29.32-.61.66-.95,1.06a2.12,2.12,0,0,1-1.63.84,2.33,2.33,0,0,1-1.4-.53,37.94,37.94,0,0,0-3.71,2.75c-.89.89-3.92,1-4.92,1-1.46,1.41-13.56,13.09-15.78,15.5-2.5,2.72-7.65,5.94-10.82,6.17Zm32.12-42.87L171.07,239l-.13,0c-.26.1-25.76,10.41-29.34,13.36s-4.55,8.44-3.12,11.3,6.23,5.8,9.05,5.58,7.83-3.31,10.16-5.85,15.41-15.15,16-15.68l.15-.14h.2c1.53,0,3.92-.22,4.41-.72a44.75,44.75,0,0,1,4.2-3.1l.36-.24.29.33a1.54,1.54,0,0,0,1,.5h0a1.16,1.16,0,0,0,.86-.49c.35-.41.68-.76,1-1.09.73-.78,1.3-1.39,1.3-1.84,0-.85-.22-6-.22-6.05v-.17l.11-.14c1-1.35,1.75-2.89,1.6-3.23-1.33-1-6.07-4.26-6.93-4.44l-.47-.1A1.71,1.71,0,0,0,179.37,227.39Z" style="fill: rgb(38, 50, 56); transform-origin: 163.354px 247.958px;" id="eli57mss0yfl" class="animable"></path><g id="el0ljbrtvyfn1k"><rect x="184.63" y="229.79" width="1" height="6.33" style="fill: rgb(38, 50, 56); transform-origin: 185.13px 232.955px; transform: rotate(-52.88deg);" class="animable" id="elp1pmrdo168f"></rect></g><g id="el9kwsim7umwp"><rect x="183.9" y="232.93" width="1" height="6.84" style="fill: rgb(38, 50, 56); transform-origin: 184.4px 236.35px; transform: rotate(-66.8deg);" class="animable" id="elmgh4u26wmb"></rect></g><g id="elzciwtz64g6"><rect x="184.13" y="236.5" width="1" height="5.97" style="fill: rgb(38, 50, 56); transform-origin: 184.63px 239.485px; transform: rotate(-77.85deg);" class="animable" id="els7utvv1ge6"></rect></g><path d="M183.16,244.6l-.55-.84a12.76,12.76,0,0,0,1.86-1.45l.77.64A14.09,14.09,0,0,1,183.16,244.6Z" style="fill: rgb(38, 50, 56); transform-origin: 183.925px 243.455px;" id="elhqsbher2hfj" class="animable"></path><path d="M297.28,223.26s-8.52,3.92-16.9,7.57-11.35,8.52-12,14.33a72.53,72.53,0,0,0,.27,14.33c.14,1.08-3.38,28.79-3.38,28.79s31,12,44.2,13.11,20.82,1.08,23.93.27a38.77,38.77,0,0,0,4.73-1.49l2-.4-3.65-18.11L340,288l11.9-4.73s-4.06-22.58-6.9-32.85-5.13-17-9.73-18.65a33.46,33.46,0,0,0-7.57-1.76c-.4-.13-10.95-3.24-14.06-4.87S303.9,220.56,297.28,223.26Z" style="fill: rgb(255, 255, 255); transform-origin: 308.585px 262.207px;" id="el2haw1vr2pqq" class="animable"></path><path d="M326,302.74c-4.16,0-9.71-.29-16.62-.85-13.16-1.08-44-13-44.34-13.14l-.36-.15.05-.38c1.39-11,3.44-27.73,3.37-28.68a73.75,73.75,0,0,1-.27-14.44c.8-6.82,4.6-11.36,12.33-14.73,8.28-3.6,16.8-7.52,16.89-7.56h0c4.88-2,10.52-1.35,16.78,1.91,1.23.64,4.56,2,13.42,4.67l.56.17c.08,0,.24,0,.49.06a31.85,31.85,0,0,1,7.09,1.7c4.94,1.74,7.28,9,10.05,19,2.81,10.18,6.86,32.66,6.9,32.89l.07.4-12.68,5.05-2.16-3.91,3.11,15.43-2.52.51h0a39.71,39.71,0,0,1-4.7,1.48A33.4,33.4,0,0,1,326,302.74ZM265.79,288c3.52,1.35,31.44,11.94,43.69,12.94,12.56,1,20.56,1.12,23.76.29a38.75,38.75,0,0,0,4.67-1.47l1.63-.33-4.19-20.8,4.87,8.8,11.1-4.42c-.56-3.08-4.22-23-6.81-32.4-2.69-9.72-4.93-16.73-9.41-18.31a30.51,30.51,0,0,0-6.88-1.64,6.67,6.67,0,0,1-.69-.11l-.53-.17c-7.17-2.18-11.75-3.77-13.6-4.73-6-3.12-11.33-3.75-15.92-1.88-.34.16-8.74,4-16.9,7.57-7.37,3.21-11,7.5-11.73,13.93a71.56,71.56,0,0,0,.27,14.21C269.25,260.49,266.47,282.54,265.79,288Z" style="fill: rgb(38, 50, 56); transform-origin: 308.545px 262.219px;" id="eld40ascp1fcn" class="animable"></path><path d="M334.45,275.44s-5.14-1.76-7.43-4.19-7.3-15.95-5.55-26.9a136.35,136.35,0,0,1,3.35-15.21c-1.85-.57-4.32-1.36-6.54-2.13a45.15,45.15,0,0,0-3.16,8.55c-2.3,8.38-8.11,21.22-13.52,23.39s-12.57-1.22-14.05-11.9c-1.08-7.7,1.64-16.52,3.25-20.84-2.13,1-4.61,2.07-7.19,3.21-.9,4.86-3.73,19.87-5.53,26.28-2.16,7.71-1.35,18.25-.4,23.66.61,3.49-.24,9.39-.92,13.14,10.2,3.58,24.67,8.24,32.68,8.89,13.25,1.08,20.82,1.08,23.93.27a38.77,38.77,0,0,0,4.73-1.49l2-.4-3.62-18Z" style="fill: rgb(255, 255, 255); transform-origin: 308.404px 264.224px;" id="ely1b6f4efabl" class="animable"></path><path d="M326,302.74c-4.16,0-9.71-.29-16.62-.85-8-.65-22.24-5.21-32.81-8.92l-.4-.14.07-.42c.61-3.34,1.54-9.47.93-13-.9-5.12-1.82-15.91.41-23.87,1.8-6.42,4.68-21.71,5.52-26.24l.05-.26.24-.11c2.58-1.14,5.06-2.25,7.18-3.21l1.09-.49-.41,1.12c-1.66,4.47-4.28,13.08-3.23,20.6.72,5.17,2.89,9,6.12,10.93a8.28,8.28,0,0,0,7.26.57c5.29-2.11,11-15,13.22-23.05a45.51,45.51,0,0,1,3.2-8.65l.2-.39.41.15c1.79.62,4,1.34,6.52,2.13l.47.14-.14.47A131.75,131.75,0,0,0,322,244.43c-1.73,10.77,3.29,24.23,5.41,26.47s7.18,4.05,7.23,4.07l.24.08,2.13,6.61,3.74,18.5-2.52.51h0a39.71,39.71,0,0,1-4.7,1.48A33.4,33.4,0,0,1,326,302.74Zm-48.7-10.57c10.47,3.66,24.39,8.09,32.16,8.72,12.56,1,20.56,1.12,23.76.29a38.75,38.75,0,0,0,4.67-1.47l1.63-.33L336,281.91l-2-6.08c-1.06-.39-5.3-2-7.4-4.24-2.48-2.62-7.43-16.36-5.67-27.32a133,133,0,0,1,3.23-14.79c-2.16-.68-4.07-1.3-5.68-1.86a46.91,46.91,0,0,0-2.93,8.08c-2.32,8.48-8.15,21.45-13.81,23.71a9.26,9.26,0,0,1-8.13-.64c-3.5-2-5.85-6.17-6.61-11.65-1-7.15,1.21-15.2,2.88-20l-5.88,2.62c-.89,4.84-3.71,19.73-5.48,26.07-2.19,7.78-1.28,18.39-.4,23.43C278.76,282.62,278.05,288.05,277.32,292.17Z" style="fill: rgb(38, 50, 56); transform-origin: 308.46px 263.995px;" id="ellffva3387x" class="animable"></path><path d="M289.57,185.41s-3.65-.67-5.94-6.08,3-11.35,14.86-12.16,19.87,1.89,25.82,10.4,5.54,15.68,5.54,27.58-2,20.95-1.62,22.71a8.49,8.49,0,0,0,.95,2.57,40.46,40.46,0,0,1-9.87-1.9c-5.54-1.75-7.43-3.24-8.38-8s-1.89-11.49-2-13.52-3.24-6.62-5.13-8.38-8.52-9.73-9.33-11.62-1.35-3.65-1.35-3.65Z" style="fill: rgb(38, 50, 56); transform-origin: 306.482px 198.732px;" id="elgc7ofjltlv" class="animable"></path><path d="M330.12,231l-1,0a40.8,40.8,0,0,1-10-1.92c-5.55-1.76-7.71-3.29-8.72-8.35-1-4.84-1.9-11.58-2-13.58-.11-1.77-3-6.24-5-8.05s-8.57-9.74-9.45-11.8c-.53-1.25-1-2.42-1.18-3.1l-3.14,1.81-.18,0c-.16,0-3.94-.79-6.31-6.38a6.74,6.74,0,0,1,.49-6.32c2.25-3.67,7.65-6.05,14.8-6.54,12.61-.85,20.46,2.31,26.26,10.62,5.68,8.12,5.66,15.12,5.64,25.72v2.14a143.31,143.31,0,0,1-1.23,17.52,27.4,27.4,0,0,0-.4,5.08,7.82,7.82,0,0,0,.88,2.4Zm-36.74-48.31.19.6a37.86,37.86,0,0,0,1.33,3.6c.76,1.78,7.33,9.72,9.21,11.45s5.14,6.52,5.29,8.72c.13,2,1.06,8.65,2,13.45.87,4.33,2.45,5.82,8,7.6a42.7,42.7,0,0,0,8.88,1.81,11.83,11.83,0,0,1-.59-1.9c-.19-.78,0-2.53.37-5.42a141.51,141.51,0,0,0,1.23-17.4V203c0-10.78,0-17.29-5.46-25.15s-13.16-11-25.37-10.19c-6.83.46-11.94,2.67-14,6.07a5.68,5.68,0,0,0-.42,5.4c1.9,4.47,4.69,5.54,5.41,5.74Z" style="fill: rgb(38, 50, 56); transform-origin: 306.454px 198.818px;" id="el0wh5usa9xlta" class="animable"></path><path d="M297.28,228.4,293.9,216s-5.14,1.08-5.81-.54-2.71-12.84-2.71-12.84-4.32-3.78-4.59-4.46,5-3.78,5.54-4.6.4-4.86.54-7,8.25-9.33,8.25-9.33.27,9.19,3.1,12.3,7.71,4.05,7.71,4.05.27,2,1.08,2.3a3.82,3.82,0,0,0,1.62.14s1.35-2.57,3.65-2.3,4.46,6,2.84,8.25a14.27,14.27,0,0,1-4.6,3.78s-.94,15.68,1.9,21.09" style="fill: rgb(255, 255, 255); transform-origin: 298.232px 202.815px;" id="el6d8dy82lz12" class="animable"></path><path d="M296.8,228.53l-3.26-12c-1.5.27-5.21.76-5.92-.93s-2.43-11.29-2.7-12.77c-1.39-1.22-4.32-3.85-4.6-4.53s.59-1.4,3.35-3.34a18.11,18.11,0,0,0,2.24-1.72c.3-.45.35-2.88.39-4.49,0-.84,0-1.65.07-2.3.14-2.25,7-8.45,8.41-9.67l.8-.7,0,1.06c0,.09.29,9,3,12S306,193,306,193l.36.07,0,.36c.11.81.46,1.79.75,1.89a3.29,3.29,0,0,0,1.16.14c.43-.69,1.81-2.59,4-2.33,1.12.13,2.25,1.26,3,3s1.23,4.5.16,6A14.3,14.3,0,0,1,311,206c-.11,2.12-.69,15.71,1.85,20.54L312,227c-2.87-5.47-2-20.7-1.94-21.35v-.29l.26-.13a13.76,13.76,0,0,0,4.41-3.62c.72-1,.62-3.09-.25-5-.62-1.39-1.5-2.35-2.24-2.43-1.89-.23-3.13,2-3.14,2l-.12.22-.25,0a4.29,4.29,0,0,1-1.86-.15c-.86-.29-1.22-1.62-1.36-2.36-1.19-.28-5.13-1.39-7.63-4.13s-3-9-3.19-11.57c-3.06,2.78-7.22,7-7.3,8.29,0,.63-.06,1.42-.07,2.25-.06,2.69-.12,4.37-.55,5a12.72,12.72,0,0,1-2.5,2,23.12,23.12,0,0,0-2.92,2.27,50.61,50.61,0,0,0,4.38,4.15l.13.12,0,.17c.56,3.11,2.13,11.45,2.67,12.74.35.84,3.34.64,5.25.24l.46-.09,3.5,12.89Z" style="fill: rgb(38, 50, 56); transform-origin: 298.161px 202.305px;" id="el0kpdautkpmlk" class="animable"></path><path d="M288.11,204.16l0-1s3-.15,4.06-1.8l.84.54C291.63,204,288.25,204.16,288.11,204.16Z" style="fill: rgb(38, 50, 56); transform-origin: 290.56px 202.76px;" id="elqbzg0d2k3zj" class="animable"></path><path d="M292,193.57c-.53-.63-1-.93-1.5-.89a1.87,1.87,0,0,0-1.21.84l-.85-.53a2.85,2.85,0,0,1,2-1.31,2.88,2.88,0,0,1,2.35,1.25Z" style="fill: rgb(38, 50, 56); transform-origin: 290.615px 192.625px;" id="elp6ttqvqxm2" class="animable"></path><path d="M292.37,188.87a2.14,2.14,0,0,0-1.36-1.31,2.87,2.87,0,0,0-2.06.67l-.65-.76a3.85,3.85,0,0,1,2.91-.89,3,3,0,0,1,2.06,1.86Z" style="fill: rgb(38, 50, 56); transform-origin: 290.785px 187.713px;" id="elw266gwjvpka" class="animable"></path><polygon points="293.9 215.96 301.6 213.26 295.93 223.26 293.9 215.96" style="fill: rgb(38, 50, 56); transform-origin: 297.75px 218.26px;" id="el5qd6jmhcgfm" class="animable"></polygon><path d="M295.77,224.56l-2.48-8.91,9.41-3.3Zm-1.26-8.28,1.58,5.69,4.42-7.8Z" style="fill: rgb(38, 50, 56); transform-origin: 297.995px 218.455px;" id="el1h3ccweqga4" class="animable"></path><path d="M307.45,285.08a99.61,99.61,0,0,1-19.57-1.94l.22-1c.24,0,24.3,5.39,42.45-2l.37.93C323.41,284.17,314.9,285.08,307.45,285.08Z" style="fill: rgb(38, 50, 56); transform-origin: 309.4px 282.61px;" id="elbbzlnp0rnl4" class="animable"></path><polygon points="316.8 293.73 315.7 284.47 316.69 284.35 317.79 293.61 316.8 293.73" style="fill: rgb(38, 50, 56); transform-origin: 316.745px 289.04px;" id="el17t2ar4tpaa" class="animable"></polygon><g id="elycui2i0gij"><rect x="319.55" y="289.22" width="1" height="8.66" style="fill: rgb(38, 50, 56); transform-origin: 320.05px 293.55px; transform: rotate(-7.31deg);" class="animable" id="elcw4ku5tivv"></rect></g><g id="elyhgvwc3xlg"><rect x="327.15" y="282.34" width="1" height="5.24" style="fill: rgb(38, 50, 56); transform-origin: 327.65px 284.96px; transform: rotate(-14.62deg);" class="animable" id="elenxnhrpqhhi"></rect></g><g id="el44zezuh663h"><rect x="296.68" y="287.66" width="6.2" height="1" style="fill: rgb(38, 50, 56); transform-origin: 299.78px 288.16px; transform: rotate(-83.83deg);" class="animable" id="elqat633xueg"></rect></g><path d="M330,247.21c3.58,0,6.49,4.24,6.49,9.47s-2.91,9.47-6.49,9.47-6.5-4.24-6.5-9.47S326.4,247.21,330,247.21ZM330,263c2.38,0,4.31-2.82,4.31-6.3s-1.93-6.3-4.31-6.3-4.32,2.82-4.32,6.3S327.6,263,330,263Z" style="fill: #FFC53B; transform-origin: 329.995px 256.68px;" id="elw6sp21awkwt" class="animable"></path><path d="M330,266.65c-3.86,0-7-4.47-7-10s3.14-10,7-10,7,4.47,7,10S333.84,266.65,330,266.65Zm0-18.94c-3.31,0-6,4-6,9s2.69,9,6,9,6-4,6-9S333.29,247.71,330,247.71Zm0,15.77c-2.66,0-4.82-3.05-4.82-6.8s2.16-6.8,4.82-6.8,4.81,3.05,4.81,6.8S332.64,263.48,330,263.48Zm0-12.6c-2.11,0-3.82,2.6-3.82,5.8s1.71,5.8,3.82,5.8,3.81-2.6,3.81-5.8S332.09,250.88,330,250.88Z" style="fill: rgb(38, 50, 56); transform-origin: 330px 256.65px;" id="elx0sdp88ucp" class="animable"></path><polygon points="312.71 271.74 327.9 271.74 329.8 243.59 310.81 243.59 312.71 271.74" style="fill: #FFC53B; transform-origin: 320.305px 257.665px;" id="elnxif0vbjl6j" class="animable"></polygon><path d="M328.37,272.23H312.24l-2-29.14h20.06Zm-15.19-1h14.26l1.83-27.14H311.35Z" style="fill: rgb(38, 50, 56); transform-origin: 320.27px 257.66px;" id="elq166a9x75s" class="animable"></path><path d="M315.21,228.17s-.92,5.36.92,8.42a9.72,9.72,0,0,1,1.53,5.62" style="fill: rgb(255, 255, 255); transform-origin: 316.324px 235.19px;" id="ely1qsoiw61" class="animable"></path><path d="M317.66,242.71h-.06a.5.5,0,0,1-.44-.55,9.26,9.26,0,0,0-1.46-5.3c-1.91-3.18-1-8.54-1-8.76a.5.5,0,1,1,1,.17c0,.05-.87,5.21.85,8.07a10,10,0,0,1,1.6,5.94A.5.5,0,0,1,317.66,242.71Z" style="fill: rgb(38, 50, 56); transform-origin: 316.323px 235.194px;" id="el604cl3su448" class="animable"></path><path d="M320.38,223.42s-.68,6.56,1.13,10.18,4.07,5.21,3.85,7.93" style="fill: rgb(255, 255, 255); transform-origin: 322.815px 232.475px;" id="elcbybnfw5ok9" class="animable"></path><path d="M325.36,242h0a.5.5,0,0,1-.46-.54c.13-1.55-.66-2.71-1.76-4.32a26.86,26.86,0,0,1-2-3.33c-1.85-3.71-1.21-10.19-1.18-10.46a.5.5,0,0,1,.55-.45.51.51,0,0,1,.45.55c0,.06-.65,6.46,1.08,9.91a26.94,26.94,0,0,0,2,3.22c1.13,1.64,2.1,3.06,1.94,5A.51.51,0,0,1,325.36,242Z" style="fill: rgb(38, 50, 56); transform-origin: 322.913px 232.455px;" id="elne28b1qwo3l" class="animable"></path><g id="el7bupg1vmghv"><rect x="333.11" y="267.6" width="1" height="7.93" style="fill: rgb(38, 50, 56); transform-origin: 333.61px 271.565px; transform: rotate(-12.22deg);" class="animable" id="elpwmzciyth4"></rect></g><path d="M336.67,249.49s-5.55,1.37-5.74,2-2,2.53-1.75,3.11.1,6.52.29,7-.19,2,1.07,2.82a2.44,2.44,0,0,0,2.34.19,15.26,15.26,0,0,0,2.82,3.5,21.59,21.59,0,0,0,2.14,1.27s.39,10.41,0,14.69,3,9.43,5.35,10.5,4.76,1.85,7.29-1.75,2.53-4,1-10.8-5.65-12.74-6.23-14.2-4.09-5.84-5.54-11.28S337.35,249.11,336.67,249.49Z" style="fill: rgb(255, 255, 255); transform-origin: 340.841px 272.455px;" id="elzejdplx6ogq" class="animable"></path><path d="M346.36,296a8.26,8.26,0,0,1-3.38-.93c-2.52-1.16-6.05-6.55-5.64-11,.34-3.8.07-12.62,0-14.33-.38-.2-1.1-.61-1.93-1.16a13.45,13.45,0,0,1-2.75-3.31,3,3,0,0,1-2.39-.38,2.89,2.89,0,0,1-1.23-2.62,3.33,3.33,0,0,0,0-.44,13.88,13.88,0,0,1-.14-3.15,31.1,31.1,0,0,0-.15-3.83c-.3-.61.32-1.45,1-2.41a6.45,6.45,0,0,0,.69-1c.07-.26.27-1,6.05-2.38a.8.8,0,0,1,.66,0c.72.3,1.44,1.61,3,7.45a34.38,34.38,0,0,0,4.36,9.18,15.18,15.18,0,0,1,1.16,2.05c.14.32.49.95.94,1.76A47.93,47.93,0,0,1,351.94,282c1.56,6.81,1.61,7.41-1.05,11.2C349.38,295.32,347.84,296,346.36,296Zm-13.31-32,.25.4a14.51,14.51,0,0,0,2.67,3.35,20.72,20.72,0,0,0,2.09,1.23l.27.13v.3c0,.42.38,10.49,0,14.75-.36,4,2.85,9,5.07,10s4.39,1.66,6.67-1.58c2.43-3.45,2.44-3.65.9-10.4A46.91,46.91,0,0,0,345.76,270a19.86,19.86,0,0,1-1-1.88,17.55,17.55,0,0,0-1.09-1.89,35.83,35.83,0,0,1-4.48-9.45c-1.41-5.26-2.08-6.51-2.38-6.76h0a24.92,24.92,0,0,0-5.4,1.77,6.33,6.33,0,0,1-.83,1.29,6,6,0,0,0-.91,1.46c.16.29.2,1.31.22,4.18,0,1.15,0,2.57.07,2.82a2.14,2.14,0,0,1,.1.73c0,.79.12,1.42.76,1.82a1.91,1.91,0,0,0,1.84.18Zm-1.69-12.24Z" style="fill: rgb(38, 50, 56); transform-origin: 340.846px 272.494px;" id="elpg6fwfnumn9" class="animable"></path><line x1="329.18" y1="254.65" x2="335.79" y2="253.68" style="fill: rgb(255, 255, 255); transform-origin: 332.485px 254.165px;" id="elxpxqde1cnsj" class="animable"></line><g id="eld8d8q2vku6h"><rect x="329.14" y="253.66" width="6.69" height="1" style="fill: rgb(38, 50, 56); transform-origin: 332.485px 254.16px; transform: rotate(-8.41deg);" class="animable" id="elqk7sh891azr"></rect></g><line x1="333.36" y1="253.97" x2="333.65" y2="252.61" style="fill: rgb(255, 255, 255); transform-origin: 333.505px 253.29px;" id="eldltbxtkyeh" class="animable"></line><g id="elnkibt58odeo"><rect x="332.81" y="252.79" width="1.39" height="1" style="fill: rgb(38, 50, 56); transform-origin: 333.505px 253.29px; transform: rotate(-77.94deg);" class="animable" id="elcapy7b2db1"></rect></g><line x1="329.67" y1="256.89" x2="335.21" y2="257.18" style="fill: rgb(255, 255, 255); transform-origin: 332.44px 257.035px;" id="el38nmvsa1tql" class="animable"></line><g id="elphhtqe6jim9"><rect x="331.94" y="254.26" width="1" height="5.55" style="fill: rgb(38, 50, 56); transform-origin: 332.44px 257.035px; transform: rotate(-86.99deg);" class="animable" id="el5zz58zhzsxy"></rect></g><line x1="329.47" y1="259.81" x2="334.53" y2="260.1" style="fill: rgb(255, 255, 255); transform-origin: 332px 259.955px;" id="elvudhc6hogd" class="animable"></line><g id="elh7z82psazuw"><rect x="331.5" y="257.42" width="1" height="5.07" style="fill: rgb(38, 50, 56); transform-origin: 332px 259.955px; transform: rotate(-86.7deg);" class="animable" id="eltrybua8hs3r"></rect></g><polyline points="332.88 264.67 332.88 263.31 331.9 263.21" style="fill: rgb(255, 255, 255); transform-origin: 332.39px 263.94px;" id="elkps0xn2ial" class="animable"></polyline><polygon points="333.38 264.67 332.38 264.67 332.38 263.76 331.85 263.71 331.95 262.71 333.38 262.86 333.38 264.67" style="fill: rgb(38, 50, 56); transform-origin: 332.615px 263.69px;" id="elf1pexfk5y5" class="animable"></polygon><path d="M209.35,288.89s-13.9,3.43-20.21,3.43-10.42-1.71-23.37-5.14-36.63-7.42-42.94-6.27-33.16,28.24-36,31.95-3.16,12-3.16,12-14.84,5.14-14.52,10,9.47,38.23,9.47,38.23S68.2,454.94,69.15,455.8s20.84,4.85,32.21,4.85,37.25-2.86,47-2.86,51.16,9.42,70.42,9.42,55.26-9.13,55.26-9.13,12.63,2,28.73,3.71,29.68,0,34.73,0H347l22.73-2.86s32.21,1.43,37.26.57,16.74-3.42,16.74-3.42l9.34-4.18s-2.41-25.81-4.83-44.35l3.63-8.36s-11.27-49.8-11.67-51.62-2.42-25.44-5.63-30.17S386,301.77,382.4,300.32,363.31,289,358.88,289.69s-35.62,9.17-40.85,8.08S271,282.14,262.51,280s-17.7-2.91-23.73-.36S209.35,288.89,209.35,288.89Z" style="fill: rgb(255, 255, 255); transform-origin: 251.079px 372.623px;" id="el0q7e3pmoydzc" class="animable"></path><path d="M218.82,467.71c-11.29,0-30.39-3.27-45.74-5.89-11.08-1.89-20.64-3.53-24.68-3.53-4.69,0-13,.66-21.87,1.35-9.47.74-19.26,1.51-25.17,1.51-11.22,0-31.43-4-32.55-5-.35-.32-.78-.71,4.22-42.12,2.37-19.62,4.88-39.38,5.08-41-.64-2.35-9.15-33.47-9.46-38.23s12-9.47,14.54-10.38c.09-1.63.64-8.52,3.24-11.92s29.64-30.94,36.31-32.15,30.71,3,43.16,6.29c3.16.83,5.8,1.57,8.06,2.2,7,1.94,10.47,2.92,15.18,2.92,6.11,0,19.65-3.31,20.08-3.41.58-.17,23.47-6.79,29.36-9.27,5.49-2.32,14.26-2.2,24.06.34,4.2,1.08,16.66,5.22,28.71,9.22,11.88,3.95,24.18,8,26.78,8.58,3.67.77,21.37-3.51,31.95-6.07,4.18-1,7.48-1.81,8.72-2,3.3-.55,11.89,4.22,18.15,7.69,2.47,1.37,4.6,2.55,5.64,3,.28.12,28.84,12,32.41,17.27,2.61,3.83,4.39,19.27,5.25,26.7.21,1.83.38,3.28.46,3.64.39,1.8,11.55,51.12,11.66,51.62l0,.16-3.63,8.38c2.38,18.33,4.79,44,4.81,44.23l0,.36-9.77,4.36c-.11,0-11.75,2.58-16.76,3.43s-36-.51-37.36-.57l-22.65,2.85h-9.54c-1.25,0-3,.1-5.3.24a172.22,172.22,0,0,1-29.48-.25c-15.18-1.61-27.43-3.5-28.66-3.69C272,459.12,237.42,467.71,218.82,467.71ZM148.4,457.29c4.12,0,13.72,1.64,24.85,3.54,15.31,2.62,34.37,5.88,45.57,5.88,19,0,54.77-9,55.13-9.12l.1,0h.1c.13,0,12.81,2,28.71,3.71a171.21,171.21,0,0,0,29.32.24c2.28-.14,4.08-.24,5.36-.24H347l22.67-2.85c.4,0,32.29,1.41,37.24.57s15.82-3.22,16.66-3.41l9-4c-.3-3.18-2.56-26.83-4.79-44l0-.13,3.61-8.34c-.7-3.11-11.24-49.71-11.63-51.46-.09-.41-.24-1.74-.48-3.75-.78-6.77-2.61-22.62-5.08-26.25-3.11-4.56-28.27-15.42-32-16.9-1.09-.44-3.14-1.58-5.74-3-5.8-3.21-14.55-8.05-17.5-7.57-1.21.19-4.5,1-8.66,2-11.34,2.75-28.48,6.89-32.38,6.08-2.66-.55-14.44-4.47-26.9-8.61-12-4-24.47-8.13-28.64-9.21-9.59-2.47-18.13-2.61-23.42-.38-6,2.52-28.53,9-29.49,9.31h0c-.56.14-14,3.44-20.32,3.44-4.85,0-8.39-1-15.44-3-2.27-.63-4.9-1.36-8.06-2.19-13.85-3.67-36.74-7.36-42.72-6.27S90.41,309,87.23,313.16c-2.72,3.55-3,11.62-3.06,11.7v.34l-.32.11c-4,1.4-14.43,5.82-14.19,9.48.31,4.75,9.36,37.8,9.45,38.14l0,.09v.1c-4,31.52-9.79,78.92-9.53,82.36,1.94.93,20.77,4.67,31.77,4.67,5.87,0,15.64-.77,25.09-1.51C135.31,458,143.67,457.29,148.4,457.29Z" style="fill: rgb(38, 50, 56); transform-origin: 251.084px 372.567px;" id="elgt8cayieyda" class="animable"></path><path d="M205.15,402.42c-7,0-13.92-2.79-20.66-8.3l.63-.77c6.64,5.41,13.47,8.12,20.25,8.07v1Z" style="fill: rgb(38, 50, 56); transform-origin: 194.93px 397.885px;" id="elzpdtle0mymd" class="animable"></path><path d="M181.79,391.77c-12.54-11.73-20.31-29.4-22.22-40.85-3.25-19.5-13.06-44.76-13.15-45l.93-.37c.1.26,9.94,25.61,13.21,45.21,1.88,11.29,9.54,28.71,21.92,40.29Z" style="fill: rgb(38, 50, 56); transform-origin: 164.45px 348.66px;" id="elzkbgrqlas4n" class="animable"></path><g id="elu88tac1sebj"><path d="M83.33,366.23s10.76-30.47,14.79-34.51,29.58-3.58,32.27-4.92,15.24-8.52,17.48-7.62,27.78,32.26,42.12,39,46.61,1.34,46.61,1.34-21.06-.45-31.82-9S192.68,334,192.68,334s35.85,8.51,48.4,2.24,44.82-19.27,48.4-17.93,35.41,6.72,36.75,7.17,30,10.76,35.41,14.34,13.44,0,18.37-.45,18.82,3.59,20.62,2.69.89-12.55,3.58-7.17,17.56,42.45,17.07,46.32,8.48,69.75,8.48,69.75a124.66,124.66,0,0,1-14.35,4c-6.72,1.34-8.06,2.24-13,2.24H380c-2.24,0-6.27-.45-6.27-.45a32.66,32.66,0,0,0-6.73-.9,93.9,93.9,0,0,0-10.3.45c-4.93.45-5.83,1.35-9.86,1.79s-14.34,1.35-14.34,1.35l-8.07.89H313.68c-3.58,0-14.79-1.79-14.79-1.79l-8.51-1.34-9-1.35s-1.8-.44-4.93-.89-5.83-1.35-9,0-16.13,3.58-19.27,4,0,0-9,1.79-14.79,2.69-14.79,2.69H210.61l-13.89-.89s-12.55-2.25-15.69-3.14-12.1-3.14-13.89-3.14-9.86-2.69-9.86-2.69H135.77s-19.72,3.14-27.79,3.14-27.34-3.59-30-4a37,37,0,0,0-5.37-.45Z" style="opacity: 0.17; transform-origin: 251.185px 390.827px;" class="animable" id="elffga1b64cl9"></path></g><path d="M409.69,328.81c4.39,9.88,18.57,78.74,18.57,78.74l3.63-8.36s-11.27-49.8-11.67-51.62-2.42-25.44-5.63-30.17S386,301.77,382.4,300.32,363.31,289,358.88,289.69s-35.62,9.17-40.85,8.08S271,282.14,262.51,280s-17.7-2.91-23.73-.36-29.43,9.29-29.43,9.29-13.9,3.43-20.21,3.43-10.42-1.71-23.37-5.14-36.63-7.42-42.94-6.27-33.16,28.24-36,31.95-3.16,12-3.16,12,16.25-4.27,21.74-10.86,18.67-23.62,30.76-21.42,45,12.63,53.27,9.88,59.76-18.08,75.8-14.16,34,11,44.2,13.11,44.23-11.58,54.66-7.18S405.29,318.92,409.69,328.81Z" style="fill: #FFC53B; transform-origin: 257.78px 342.793px;" id="elwk7n0ldsucb" class="animable"></path><path d="M428.09,409.2l-.31-1.55c-.15-.69-14.23-68.91-18.55-78.64h0c-4.38-9.85-35-30-45.32-34.34-5.6-2.36-18.83.79-30.5,3.58-10,2.37-19.39,4.62-24.07,3.63-5-1.05-11.6-3.2-19.28-5.69s-16.7-5.41-24.94-7.42c-15.76-3.85-66.24,11.05-75.52,14.15-5.92,2-23.92-2.6-38.38-6.28-6.2-1.58-11.56-2.94-15.14-3.59-11.09-2-23.35,12.84-29.24,20l-1,1.27c-5.53,6.64-21.32,10.85-22,11l-.65.17,0-.68c0-.34.36-8.47,3.26-12.26,2.53-3.3,29.64-30.94,36.31-32.15s30.71,3,43.16,6.29c3.16.83,5.8,1.57,8.06,2.2,7,1.94,10.47,2.92,15.18,2.92,6.18,0,20-3.38,20.09-3.41s23.41-6.77,29.35-9.27c5.49-2.32,14.26-2.2,24.06.34,4.2,1.08,16.66,5.22,28.71,9.22,11.88,3.95,24.18,8,26.78,8.58,3.67.77,21.37-3.51,31.95-6.07,4.18-1,7.48-1.81,8.72-2,3.3-.53,11.89,4.22,18.15,7.69,2.47,1.37,4.6,2.55,5.64,3,.28.12,28.84,12,32.41,17.27,2.61,3.83,4.39,19.27,5.25,26.7.21,1.83.38,3.28.46,3.64.39,1.8,11.55,51.12,11.66,51.62l0,.16ZM358.47,292.83a15.12,15.12,0,0,1,5.82.92c10.46,4.4,41.39,24.82,45.86,34.85h0c4.05,9.12,16.11,66.8,18.28,77.3l2.93-6.76c-.7-3.11-11.24-49.71-11.63-51.46-.09-.41-.24-1.74-.48-3.75-.78-6.77-2.61-22.62-5.08-26.25-3.11-4.56-28.27-15.42-32-16.9-1.09-.44-3.14-1.58-5.74-3-5.8-3.21-14.56-8.06-17.5-7.57-1.21.19-4.5,1-8.66,2-11.34,2.75-28.48,6.89-32.38,6.08-2.66-.55-14.44-4.47-26.9-8.61-12-4-24.47-8.13-28.64-9.21-9.59-2.47-18.13-2.61-23.42-.38-6,2.52-28.53,9-29.49,9.31-.58.15-14,3.45-20.34,3.45-4.85,0-8.39-1-15.44-3-2.27-.63-4.9-1.36-8.06-2.19-13.85-3.67-36.74-7.36-42.72-6.27S90.41,309,87.23,313.16c-2.25,2.94-2.87,9-3,11,3.11-.88,16.11-4.87,20.81-10.51l1-1.26c6-7.29,18.52-22.44,30.19-20.33,3.62.65,9,2,15.2,3.6,14.34,3.65,32.18,8.18,37.82,6.3,9.33-3.11,60.09-18.09,76.08-14.18,8.27,2,17.16,4.91,25,7.45,7.34,2.38,14.26,4.62,19.18,5.66,4.45.94,13.77-1.28,23.63-3.63C342.38,295.08,351.81,292.83,358.47,292.83Z" style="fill: rgb(38, 50, 56); transform-origin: 257.79px 343.337px;" id="el2x4pwhrloik" class="animable"></path><path d="M222,317.21c-4.18,0-11.82-.84-19.86-1.72-5.3-.58-10.78-1.19-15.61-1.59-7.45-.62-19.36-4-28.93-6.66-7.41-2.08-13.8-3.88-16.11-3.88-3,0-9.92,4-20.44,11.84l-.17.12-.6-.8.17-.12c4-3,16.12-12,21-12,2.45,0,8.59,1.73,16.38,3.92,9.53,2.68,21.39,6,28.74,6.62,4.85.41,10.33,1,15.64,1.59,8.94,1,17.38,1.91,21,1.68l.06,1C222.89,317.2,222.45,317.21,222,317.21Z" style="fill: rgb(38, 50, 56); transform-origin: 171.775px 309.805px;" id="elaa9ad1hvfqg" class="animable"></path><path d="M106.05,322.94l-.44-.9c.08,0,8.11-3.94,11.9-5.88l.45.89C114.16,319,106.13,322.9,106.05,322.94Z" style="fill: rgb(38, 50, 56); transform-origin: 111.785px 319.55px;" id="el74xg8wtp5xv" class="animable"></path><path d="M230,357.89l-.38-.93c2.31-.92,3.47-1.94,3.77-2.53l.89.45C233.81,355.89,232.21,357,230,357.89Z" style="fill: rgb(38, 50, 56); transform-origin: 231.95px 356.16px;" id="elb1zulq9wkiu" class="animable"></path><path d="M218.11,359.83a66,66,0,0,1-14.56-1.78c-18.18-4.13-28.87-21.55-36-33.08-.68-1.11-1.33-2.17-2-3.17-7-11.17-9.31-13.54-9.33-13.56l.71-.71c.09.09,2.36,2.41,9.47,13.74.63,1,1.28,2.06,2,3.18,7,11.38,17.55,28.59,35.31,32.63,10,2.27,16.93,1.92,21,1.23l.17,1A40.19,40.19,0,0,1,218.11,359.83Z" style="fill: rgb(38, 50, 56); transform-origin: 190.55px 333.681px;" id="elljgkw403ll" class="animable"></path><path d="M238.38,317.94l-.51-.86c.95-.56,23.07-13.5,27.91-13.5h.12c4.45.22,30.71,4.31,31.83,4.48l-.15,1c-.28,0-27.33-4.25-31.73-4.47h-.1C262,304.58,244.76,314.2,238.38,317.94Z" style="fill: rgb(38, 50, 56); transform-origin: 267.8px 310.76px;" id="el42iv4xpm3no" class="animable"></path><path d="M319,306.66l-.33-.94c3.1-1.08,6.37-2.32,9.72-3.67,14.18-5.72,20-6.74,28.27-4.95s12.51,4.43,12.69,4.54l-.53.85s-4.3-2.66-12.38-4.41-13.72-.73-27.68,4.9C325.36,304.33,322.07,305.57,319,306.66Z" style="fill: rgb(38, 50, 56); transform-origin: 344.01px 301.479px;" id="elo7x3cb1ng4j" class="animable"></path><path d="M307.38,310.16l-.21-1s2.69-.58,7.69-2.2l.31.95C310.11,309.58,307.49,310.14,307.38,310.16Z" style="fill: rgb(38, 50, 56); transform-origin: 311.17px 308.56px;" id="eljzk3nbve1qs" class="animable"></path><path d="M380.75,331.41a44.46,44.46,0,0,1-4.31-2.1c-10.15-5.21-33.93-17.43-48-14.89-17.23,3.09-24.74,4.9-24.81,4.92l-.19,0-.16-.09c-.16-.08-15.86-8.45-21.94-8.67-5.33-.22-16.87,4.86-28.05,9.74l-5.3,2.31c-10,4.32-15.63,6.54-23.67,8.23l-.21-1c8-1.68,13.29-3.78,23.48-8.17l5.3-2.31c11.28-4.92,23-10,28.48-9.82,6,.22,20.4,7.74,22.21,8.7,1.25-.3,8.9-2.05,24.68-4.89,14.44-2.59,38.43,9.73,48.68,15,2.12,1.1,3.66,1.89,4.15,2Z" style="fill: rgb(38, 50, 56); transform-origin: 302.6px 320.483px;" id="elw4fd4xhfnmj" class="animable"></path><path d="M216.27,332.32l-.15-1c1.87-.29,3.53-.57,5.08-.85l.18,1C219.83,331.76,218.15,332,216.27,332.32Z" style="fill: rgb(38, 50, 56); transform-origin: 218.75px 331.395px;" id="elc3tm3ngg33h" class="animable"></path><path d="M265.22,395.34l-.93-.35c.21-.57,1.12-7.13,3-23.86l1,.12C267.35,379.77,265.64,394.23,265.22,395.34Z" style="fill: rgb(38, 50, 56); transform-origin: 266.29px 383.235px;" id="el9j46xjsbc9" class="animable"></path><path d="M268.75,367.59l-1-.12c1.23-10.79,2.23-20.17,2.33-21.8,0-.44,0-1,.06-1.57.18-4.58.5-13.1,4.89-15.61,4.68-2.68,25.18-9.6,26.05-9.89l.31.95c-.21.07-21.26,7.17-25.87,9.8-3.91,2.24-4.21,10.4-4.38,14.79,0,.61,0,1.15-.07,1.59C271,347.38,270,356.77,268.75,367.59Z" style="fill: rgb(38, 50, 56); transform-origin: 284.57px 343.095px;" id="els9ml2f9oube" class="animable"></path><path d="M275.77,431.44l-1-.05c.16-3.55,3.83-87.18,5.62-92.78s17-16.57,17.64-17l.59.81c-.16.11-15.56,11.16-17.27,16.53S275.81,430.57,275.77,431.44Z" style="fill: rgb(38, 50, 56); transform-origin: 286.695px 376.525px;" id="elt8tyeplnj7l" class="animable"></path><path d="M333.86,431s-.16-1.81-.44-4.93l1-.08c.28,3.12.43,4.92.43,4.92Z" style="fill: rgb(38, 50, 56); transform-origin: 334.135px 428.495px;" id="elyjlzessfqn" class="animable"></path><path d="M332.89,420.1c-2.13-23.48-7.36-78.67-9.95-84-3.25-6.73-16.68-14.7-16.81-14.79l.5-.86c.57.34,13.83,8.22,17.21,15.21,2.66,5.5,7.91,60.84,10,84.37Z" style="fill: rgb(38, 50, 56); transform-origin: 319.985px 370.275px;" id="elc5icls0947n" class="animable"></path><path d="M387.34,436.58c0-.22-.7-22.4-3.35-45.39-2.31-20-5.64-39.37-14.36-46.21-2.95-2.31-11.87-6.34-26.52-12l.36-.94c14.74,5.66,23.75,9.74,26.78,12.11,8.5,6.67,12,23.57,14.73,46.89,2.66,23,3.35,45.25,3.36,45.47Z" style="fill: rgb(38, 50, 56); transform-origin: 365.725px 384.31px;" id="elsb1ng95pfwj" class="animable"></path><path d="M338.79,331.37c-14.66-5.52-29.07-10.43-29.21-10.48l.32-.95c.14.05,14.57,5,29.24,10.5Z" style="fill: rgb(38, 50, 56); transform-origin: 324.36px 325.655px;" id="elubgtvw2oclh" class="animable"></path><path d="M409.58,402.81c-3-12.91-10.2-43.76-13-51.56a43.17,43.17,0,0,0-9.71-15.47l.68-.74a44.47,44.47,0,0,1,10,15.86c2.86,7.86,10.09,38.76,13.07,51.68Z" style="fill: rgb(38, 50, 56); transform-origin: 398.745px 368.925px;" id="ellgmg9r29jh" class="animable"></path><g id="elmqwfzx22d7"><rect x="410.4" y="405.09" width="1" height="2.49" style="fill: rgb(38, 50, 56); transform-origin: 410.9px 406.335px; transform: rotate(-12.7787deg);" class="animable" id="eljpjh71d4u6"></rect></g><path d="M293.09,303.57s-2.89-1.3-7.39-3l.36-.94c4.52,1.72,7.41,3,7.44,3Z" style="fill: rgb(38, 50, 56); transform-origin: 289.6px 301.6px;" id="elw654nv3pjth" class="animable"></path><path d="M182.73,309.16c-2.91,0-5.41-.2-5.59-.22l-.14,0c-.24-.1-24.24-9.73-33.63-14a23.18,23.18,0,0,0-17.75-.39l-.42-.91a23.76,23.76,0,0,1,18.59.39c9.11,4.18,32.06,13.4,33.51,14,.76.06,7.23.54,11.22-.19.95-.17,3.91-1.25,8-2.75,13.94-5.09,42.93-15.69,57.73-13.84,10.12,1.26,20.58,4.46,27.57,6.92l-.33.94c-6.95-2.44-17.34-5.62-27.37-6.87-14.53-1.82-43.39,8.72-57.25,13.79-4.3,1.57-7.14,2.61-8.17,2.79A34.62,34.62,0,0,1,182.73,309.16Z" style="fill: rgb(38, 50, 56); transform-origin: 203.51px 300.105px;" id="elx6mydepfu5" class="animable"></path></g><g id="freepik--Food--inject-132" class="animable" style="transform-origin: 241.16px 265.387px;"><path d="M245.67,266.77a7.13,7.13,0,0,0-3.23,0,4.77,4.77,0,0,0-3.13,2.33,4.21,4.21,0,0,0-.09.7,3.12,3.12,0,0,0-1.28.74,2.9,2.9,0,0,0,.1,2.87,3.51,3.51,0,0,0,2.35,1.21c.73.08,3.67.19,3.67.19s.15.51,1.86.51,3.52-.2,3.52-.2a7.61,7.61,0,0,0,2.69.59,2.6,2.6,0,0,0,1.91-1.05,17.32,17.32,0,0,0,3.62-.23,3,3,0,0,0,1.56-1.05s2.64-.28,3.33-.86a3.32,3.32,0,0,0,.44-3.26,2.39,2.39,0,0,0-1.67-.93c-.73-.12-2.59-.66-2.59-.66a2.28,2.28,0,0,0-.83-.82,25.34,25.34,0,0,0-3.23-.58,10.28,10.28,0,0,0-3.67-1.09,10.11,10.11,0,0,0-4.94.85C245.43,266.38,245.67,266.77,245.67,266.77Z" style="fill: #FFC53B; transform-origin: 250.42px 270.429px;" id="elvxg0k6q8o4b" class="animable"></path><path d="M252,276.17a8,8,0,0,1-2.65-.58c-.45.05-2,.19-3.45.19a3.08,3.08,0,0,1-2.12-.52c-.71,0-2.84-.12-3.46-.18a4,4,0,0,1-2.7-1.4,3.36,3.36,0,0,1-.07-3.51,3.14,3.14,0,0,1,1.18-.77c0-.12,0-.27.07-.44a5.11,5.11,0,0,1,3.52-2.72,7.88,7.88,0,0,1,2.88-.07,1.44,1.44,0,0,1,.58-.6,10.62,10.62,0,0,1,5.25-.93,11.24,11.24,0,0,1,3.78,1.1,20.3,20.3,0,0,1,3.29.62,2.67,2.67,0,0,1,.93.84c.47.13,1.79.5,2.35.59a2.87,2.87,0,0,1,2,1.11c.68.81.38,3.22-.5,4a8.56,8.56,0,0,1-3.39.95,3.64,3.64,0,0,1-1.69,1.06,15.87,15.87,0,0,1-3.52.25,3,3,0,0,1-2.13,1.05Zm-2.58-1.59a.65.65,0,0,1,.19,0,7.12,7.12,0,0,0,2.48.55,2.08,2.08,0,0,0,1.51-.84.56.56,0,0,1,.43-.21,16.07,16.07,0,0,0,3.47-.22,2.5,2.5,0,0,0,1.29-.84.48.48,0,0,1,.36-.22,8.91,8.91,0,0,0,3.05-.74,3,3,0,0,0,.38-2.56,1.87,1.87,0,0,0-1.35-.76c-.76-.12-2.58-.65-2.66-.67a.55.55,0,0,1-.29-.23,1.76,1.76,0,0,0-.61-.62,24.19,24.19,0,0,0-3.08-.54l-.18-.06a10.19,10.19,0,0,0-3.47-1,9.69,9.69,0,0,0-4.64.78.61.61,0,0,0-.2.17.44.44,0,0,1,0,.53.52.52,0,0,1-.56.13,6.88,6.88,0,0,0-3,0,4.48,4.48,0,0,0-2.75,1.95,4.08,4.08,0,0,0-.08.6.51.51,0,0,1-.37.47,2.59,2.59,0,0,0-1,.59,2.46,2.46,0,0,0,.12,2.24,3,3,0,0,0,2,1c.71.08,3.61.19,3.64.19a.49.49,0,0,1,.42.27,2.62,2.62,0,0,0,1.42.24c1.66,0,3.45-.19,3.47-.19Zm-4.9.05Zm0,0Zm0,0Z" style="fill: rgb(38, 50, 56); transform-origin: 250.421px 270.409px;" id="el0t9z7eh1hrx" class="animable"></path><path d="M243.86,274.73a.5.5,0,0,1-.48-.37s-.1-.38-.28-.89a.5.5,0,0,1,.94-.34c.2.57.31,1,.31,1a.5.5,0,0,1-.36.61Z" style="fill: rgb(38, 50, 56); transform-origin: 243.72px 273.777px;" id="elewh5w884uft" class="animable"></path><path d="M243.27,273a.5.5,0,0,1-.46-.31,7.31,7.31,0,0,0-1-1.72,2.28,2.28,0,0,0-2-.9.5.5,0,1,1-.15-1,3.27,3.27,0,0,1,3,1.28,8.64,8.64,0,0,1,1.09,1.94.51.51,0,0,1-.27.66A.65.65,0,0,1,243.27,273Z" style="fill: rgb(38, 50, 56); transform-origin: 241.508px 271.023px;" id="eljrhrsaqba4" class="animable"></path><path d="M249.54,275.2a.5.5,0,0,1-.5-.5,16.25,16.25,0,0,0-1-5,.5.5,0,0,1,.29-.64.51.51,0,0,1,.65.29A17.11,17.11,0,0,1,250,274.7a.51.51,0,0,1-.5.5Z" style="fill: rgb(38, 50, 56); transform-origin: 249.005px 272.114px;" id="el0yim15vzd2p" class="animable"></path><path d="M248.05,269a.5.5,0,0,1-.44-.27c-.69-1.32-1.29-1.37-1.3-1.37a.51.51,0,0,1-.52-.47.52.52,0,0,1,.48-.53c.2,0,1.24,0,2.22,1.91a.49.49,0,0,1-.21.67A.46.46,0,0,1,248.05,269Z" style="fill: rgb(38, 50, 56); transform-origin: 247.169px 267.68px;" id="elsefu6kdh12" class="animable"></path><path d="M254.28,274.69a.45.45,0,0,1-.16,0,.5.5,0,0,1-.31-.63,11,11,0,0,0,.3-1.22.51.51,0,0,1,.59-.4.51.51,0,0,1,.4.59,10.41,10.41,0,0,1-.35,1.36A.5.5,0,0,1,254.28,274.69Z" style="fill: rgb(38, 50, 56); transform-origin: 254.446px 273.565px;" id="elu8zjmf003mm" class="animable"></path><path d="M254.79,272.07h0a.49.49,0,0,1-.45-.54c0-.2,0-.4,0-.62a28.39,28.39,0,0,0-.34-4.3.5.5,0,1,1,1-.15,29.52,29.52,0,0,1,.35,4.48c0,.23,0,.46,0,.67A.5.5,0,0,1,254.79,272.07Z" style="fill: rgb(38, 50, 56); transform-origin: 254.672px 269.052px;" id="el78kuj4ts7sf" class="animable"></path><path d="M259.17,273.29h-.1a.5.5,0,0,1-.39-.59,9,9,0,0,0-.17-4.35.5.5,0,0,1,.29-.64.52.52,0,0,1,.65.3,9.67,9.67,0,0,1,.21,4.89A.49.49,0,0,1,259.17,273.29Z" style="fill: rgb(38, 50, 56); transform-origin: 259.179px 270.486px;" id="elovh70edxbd" class="animable"></path><path d="M235.25,260.9a7.19,7.19,0,0,0-3.22,0,4.68,4.68,0,0,0-3.13,2.33,3.7,3.7,0,0,0-.1.7,3,3,0,0,0-1.27.73,2.91,2.91,0,0,0,.09,2.88,3.46,3.46,0,0,0,2.35,1.2c.74.08,3.67.2,3.67.2s.15.5,1.86.5,3.52-.19,3.52-.19a7.7,7.7,0,0,0,2.69.58,2.6,2.6,0,0,0,1.91-1.05,17.32,17.32,0,0,0,3.62-.23,2.93,2.93,0,0,0,1.56-1s2.64-.27,3.33-.85a3.35,3.35,0,0,0,.44-3.27,2.42,2.42,0,0,0-1.66-.93c-.74-.12-2.6-.66-2.6-.66a2.36,2.36,0,0,0-.83-.82,25.34,25.34,0,0,0-3.23-.58,10.51,10.51,0,0,0-3.66-1.09,10,10,0,0,0-4.94.86C235,260.52,235.25,260.9,235.25,260.9Z" style="fill: #FFC53B; transform-origin: 240.001px 264.574px;" id="el11nr5hdmwveh" class="animable"></path><path d="M241.6,270.3a8.06,8.06,0,0,1-2.65-.57c-.45,0-2,.18-3.45.18a3.09,3.09,0,0,1-2.11-.51c-.72,0-2.84-.12-3.47-.19a4,4,0,0,1-2.69-1.4,3.32,3.32,0,0,1-.08-3.5,3.06,3.06,0,0,1,1.18-.78c0-.12,0-.26.08-.44a5.05,5.05,0,0,1,3.51-2.71,7.71,7.71,0,0,1,2.88-.08,1.44,1.44,0,0,1,.58-.6,10.52,10.52,0,0,1,5.25-.92,10.7,10.7,0,0,1,3.78,1.1,19.32,19.32,0,0,1,3.29.61,2.68,2.68,0,0,1,.93.84c.47.14,1.79.51,2.35.6a2.82,2.82,0,0,1,2,1.1c.68.81.38,3.22-.5,4a8.33,8.33,0,0,1-3.39.94,3.57,3.57,0,0,1-1.68,1.06,16,16,0,0,1-3.53.26,3,3,0,0,1-2.12,1ZM239,268.72a.48.48,0,0,1,.2,0,7.2,7.2,0,0,0,2.47.54,2.11,2.11,0,0,0,1.52-.83.51.51,0,0,1,.42-.22,16,16,0,0,0,3.47-.21,2.48,2.48,0,0,0,1.29-.85.53.53,0,0,1,.36-.22,8.41,8.41,0,0,0,3.05-.74,3.06,3.06,0,0,0,.39-2.56,1.94,1.94,0,0,0-1.36-.76c-.76-.12-2.58-.65-2.66-.67a.55.55,0,0,1-.29-.23,1.85,1.85,0,0,0-.61-.62,23,23,0,0,0-3.08-.53l-.18-.06a9.21,9.21,0,0,0-8.1-.25c-.18.11-.2.18-.2.18a.44.44,0,0,1,0,.52.49.49,0,0,1-.55.13,7,7,0,0,0-3,0,4.48,4.48,0,0,0-2.75,2,3.3,3.3,0,0,0-.08.59.51.51,0,0,1-.37.48,2.43,2.43,0,0,0-1,.58,2.51,2.51,0,0,0,.12,2.25,3,3,0,0,0,2,1c.71.07,3.61.19,3.64.19a.51.51,0,0,1,.42.26c.06.05.38.24,1.42.24,1.66,0,3.45-.19,3.47-.19Zm-4.9,0Zm0,0Z" style="fill: rgb(38, 50, 56); transform-origin: 240.021px 264.522px;" id="elwbo4mtu9qgc" class="animable"></path><path d="M233.44,268.86a.49.49,0,0,1-.48-.37s-.1-.37-.28-.89a.49.49,0,0,1,.3-.64.5.5,0,0,1,.64.3c.2.57.31,1,.31,1a.51.51,0,0,1-.36.62Z" style="fill: rgb(38, 50, 56); transform-origin: 233.297px 267.905px;" id="eldriyttgc0re" class="animable"></path><path d="M232.85,267.16a.5.5,0,0,1-.46-.31,7.93,7.93,0,0,0-.95-1.72,2.34,2.34,0,0,0-2-.9.5.5,0,1,1-.15-1,3.27,3.27,0,0,1,3,1.27,9.06,9.06,0,0,1,1.08,1.94.5.5,0,0,1-.27.66A.43.43,0,0,1,232.85,267.16Z" style="fill: rgb(38, 50, 56); transform-origin: 231.135px 265.184px;" id="elb9foswethr8" class="animable"></path><path d="M239.12,269.33a.5.5,0,0,1-.5-.5,16.22,16.22,0,0,0-1-5,.52.52,0,0,1,.3-.65.51.51,0,0,1,.64.3,16.74,16.74,0,0,1,1.06,5.34.5.5,0,0,1-.5.5Z" style="fill: rgb(38, 50, 56); transform-origin: 238.606px 266.241px;" id="elao62n8t5ix" class="animable"></path><path d="M237.63,263.12a.5.5,0,0,1-.44-.27c-.69-1.31-1.29-1.37-1.3-1.37a.49.49,0,0,1-.51-.46.51.51,0,0,1,.48-.54c.19,0,1.23,0,2.22,1.91a.52.52,0,0,1-.21.68A.69.69,0,0,1,237.63,263.12Z" style="fill: rgb(38, 50, 56); transform-origin: 236.756px 261.8px;" id="el63uverdva63" class="animable"></path><path d="M243.86,268.82a.44.44,0,0,1-.16,0,.51.51,0,0,1-.31-.64,10.32,10.32,0,0,0,.3-1.22.5.5,0,0,1,1,.19,9.88,9.88,0,0,1-.35,1.36A.48.48,0,0,1,243.86,268.82Z" style="fill: rgb(38, 50, 56); transform-origin: 244.031px 267.687px;" id="elyaj6v7tywn" class="animable"></path><path d="M244.37,266.21h0a.49.49,0,0,1-.46-.53c0-.2,0-.41,0-.62a28.1,28.1,0,0,0-.34-4.3.51.51,0,0,1,.42-.57.49.49,0,0,1,.57.42,29.34,29.34,0,0,1,.35,4.47c0,.24,0,.46,0,.68A.5.5,0,0,1,244.37,266.21Z" style="fill: rgb(38, 50, 56); transform-origin: 244.238px 263.197px;" id="el537fe851bll" class="animable"></path><path d="M248.75,267.43h-.1a.51.51,0,0,1-.39-.59,8.61,8.61,0,0,0-.17-4.35.5.5,0,1,1,.94-.35,9.73,9.73,0,0,1,.21,4.9A.49.49,0,0,1,248.75,267.43Z" style="fill: rgb(38, 50, 56); transform-origin: 248.758px 264.622px;" id="el138nx6pv7u1c" class="animable"></path><path d="M236.36,266.19a7.15,7.15,0,0,1,3.23,0,4.77,4.77,0,0,1,3.13,2.33,3.81,3.81,0,0,1,.1.7,3.11,3.11,0,0,1,1.27.74,2.87,2.87,0,0,1-.1,2.87,3.47,3.47,0,0,1-2.34,1.21c-.74.08-3.67.19-3.67.19s-.15.51-1.86.51-3.52-.2-3.52-.2a7.61,7.61,0,0,1-2.69.59,2.57,2.57,0,0,1-1.91-1,16.84,16.84,0,0,1-3.62-.24,3,3,0,0,1-1.57-1s-2.64-.28-3.32-.86a3.3,3.3,0,0,1-.44-3.26,2.39,2.39,0,0,1,1.66-.93c.74-.12,2.59-.66,2.59-.66a2.35,2.35,0,0,1,.84-.82,24.94,24.94,0,0,1,3.22-.58,10.37,10.37,0,0,1,3.67-1.09,10.06,10.06,0,0,1,4.94.85C236.61,265.8,236.36,266.19,236.36,266.19Z" style="fill: #FFC53B; transform-origin: 231.616px 269.893px;" id="eltanoevvrfcd" class="animable"></path><path d="M230,275.59h-.13a3,3,0,0,1-2.12-1,16,16,0,0,1-3.53-.25,3.64,3.64,0,0,1-1.69-1.06,8.6,8.6,0,0,1-3.39-1c-.87-.74-1.18-3.15-.49-4a2.87,2.87,0,0,1,2-1.11c.57-.09,1.88-.46,2.36-.59a2.5,2.5,0,0,1,.93-.84,20.3,20.3,0,0,1,3.29-.62,11.16,11.16,0,0,1,3.77-1.1,10.56,10.56,0,0,1,5.25.93,1.38,1.38,0,0,1,.58.6,7.72,7.72,0,0,1,2.89.07,5.06,5.06,0,0,1,3.51,2.72c0,.17.06.32.08.44a3.22,3.22,0,0,1,1.18.77,3.34,3.34,0,0,1-.08,3.51,4,4,0,0,1-2.69,1.4c-.63.06-2.75.15-3.47.18a3,3,0,0,1-2.11.52c-1.48,0-3-.14-3.45-.19A8.07,8.07,0,0,1,230,275.59Zm-2-2a.49.49,0,0,1,.41.22,2.14,2.14,0,0,0,1.51.83,7.12,7.12,0,0,0,2.48-.55.54.54,0,0,1,.25,0s1.8.19,3.47.19a2.62,2.62,0,0,0,1.42-.24.49.49,0,0,1,.42-.27s2.92-.11,3.63-.19a3,3,0,0,0,2-1,1.66,1.66,0,0,0-.91-2.83.5.5,0,0,1-.36-.48,3.79,3.79,0,0,0-.09-.6,4.52,4.52,0,0,0-2.75-1.94,6.91,6.91,0,0,0-3,0,.49.49,0,0,1-.54-.18.51.51,0,0,1-.06-.49.71.71,0,0,0-.19-.16,9.52,9.52,0,0,0-4.63-.78,10.39,10.39,0,0,0-3.48,1,.49.49,0,0,1-.17.06,24.19,24.19,0,0,0-3.08.54,1.9,1.9,0,0,0-.62.62.46.46,0,0,1-.29.22c-.07,0-1.89.56-2.65.68a1.91,1.91,0,0,0-1.36.76,3,3,0,0,0,.38,2.56,8.91,8.91,0,0,0,3.06.74.47.47,0,0,1,.36.22,2.5,2.5,0,0,0,1.29.84,16,16,0,0,0,3.46.22Zm9.5.51Zm0,0Zm0,0Zm-1.56-8.13v0Z" style="fill: rgb(38, 50, 56); transform-origin: 231.611px 269.788px;" id="el19balzq25vk" class="animable"></path><path d="M238.17,274.15l-.13,0a.5.5,0,0,1-.35-.61s.11-.4.31-1a.5.5,0,0,1,.94.33c-.18.52-.28.89-.28.9A.51.51,0,0,1,238.17,274.15Z" style="fill: rgb(38, 50, 56); transform-origin: 238.314px 273.198px;" id="el8m71lngqxcd" class="animable"></path><path d="M238.77,272.45a.71.71,0,0,1-.2,0,.51.51,0,0,1-.26-.66,8.65,8.65,0,0,1,1.08-1.94,3.29,3.29,0,0,1,3-1.28.5.5,0,0,1,.41.57.49.49,0,0,1-.56.42,2.26,2.26,0,0,0-2,.9,7.7,7.7,0,0,0-1,1.72A.51.51,0,0,1,238.77,272.45Z" style="fill: rgb(38, 50, 56); transform-origin: 240.538px 270.503px;" id="elpzwpr6c00km" class="animable"></path><path d="M232.5,274.62h0a.5.5,0,0,1-.5-.5,16.73,16.73,0,0,1,1.06-5.35.5.5,0,0,1,.64-.29.51.51,0,0,1,.3.64,15.91,15.91,0,0,0-1,5A.51.51,0,0,1,232.5,274.62Z" style="fill: rgb(38, 50, 56); transform-origin: 233.014px 271.535px;" id="elvnkf0kylrwl" class="animable"></path><path d="M234,268.41a.53.53,0,0,1-.23-.06.51.51,0,0,1-.21-.68c1-1.88,2-1.92,2.22-1.9a.51.51,0,0,1,.47.53.5.5,0,0,1-.51.47c-.05,0-.63.1-1.29,1.37A.51.51,0,0,1,234,268.41Z" style="fill: rgb(38, 50, 56); transform-origin: 234.877px 267.089px;" id="elw2j7n6crib" class="animable"></path><path d="M227.75,274.11a.52.52,0,0,1-.47-.33s-.18-.54-.34-1.36a.51.51,0,0,1,.4-.59.5.5,0,0,1,.58.4,9.65,9.65,0,0,0,.31,1.22.5.5,0,0,1-.31.63A.47.47,0,0,1,227.75,274.11Z" style="fill: rgb(38, 50, 56); transform-origin: 227.594px 272.966px;" id="elnuamhm2ppk" class="animable"></path><path d="M227.25,271.49a.5.5,0,0,1-.5-.46c0-.21,0-.44,0-.67a31.61,31.61,0,0,1,.34-4.48.52.52,0,0,1,.58-.42.49.49,0,0,1,.41.57,30.52,30.52,0,0,0-.33,4.3,6.13,6.13,0,0,0,0,.62.5.5,0,0,1-.46.54Z" style="fill: rgb(38, 50, 56); transform-origin: 227.419px 268.473px;" id="elwrevb6tyw2p" class="animable"></path><path d="M222.86,272.71a.5.5,0,0,1-.49-.4,9.6,9.6,0,0,1,.22-4.89.5.5,0,0,1,.94.34,8.74,8.74,0,0,0-.18,4.35.49.49,0,0,1-.39.59Z" style="fill: rgb(38, 50, 56); transform-origin: 222.854px 269.907px;" id="elmjyynnp4ihj" class="animable"></path><path d="M275.55,249.35h0a.5.5,0,0,1-.48-.52,76.38,76.38,0,0,1,1.52-13.12.5.5,0,0,1,.6-.38.51.51,0,0,1,.37.61,76.4,76.4,0,0,0-1.49,12.94A.5.5,0,0,1,275.55,249.35Z" style="fill: rgb(38, 50, 56); transform-origin: 276.321px 242.334px;" id="elpcbmys92lj" class="animable"></path><path d="M275,253.3h0a.5.5,0,0,1-.49-.52c.18-7.42-.35-22-.36-22.18a.5.5,0,0,1,.48-.52.47.47,0,0,1,.52.48c0,.15.54,14.79.36,22.25A.51.51,0,0,1,275,253.3Z" style="fill: rgb(38, 50, 56); transform-origin: 274.848px 241.689px;" id="el79dkoysiuq2" class="animable"></path><path d="M275.37,227.17s-1.08-3-2.87-3.76-1.79,1.44-1.25,2c0,0-2,0-2.33,1.08s1.43,2.15,1.43,2.15-2,.54-2.51,1.79,2.15,1.43,2.15,1.43a4.22,4.22,0,0,0-1.07,2.69c.18,1.25,3.4-.18,3.4-.18,2,.9,2.33-.54,2.33-.54s.54,2,2.15.72a2.24,2.24,0,0,0,.72-2.87,1.91,1.91,0,0,0,1.79-2,1.84,1.84,0,0,0-1.61-2.15s1.43-2.86,0-3.4S274.94,225.73,275.37,227.17Z" style="fill: rgb(255, 255, 255); transform-origin: 273.557px 229.157px;" id="ellbieazk3jzb" class="animable"></path><path d="M269.77,235.53a1.74,1.74,0,0,1-.82-.17,1,1,0,0,1-.53-.77,3.84,3.84,0,0,1,.68-2.38,2.59,2.59,0,0,1-1.66-.91,1.15,1.15,0,0,1-.06-1.1,3.81,3.81,0,0,1,1.95-1.74,2.12,2.12,0,0,1-.89-2.16A2.42,2.42,0,0,1,270.5,225a2.1,2.1,0,0,1,.22-1.59,1.48,1.48,0,0,1,2-.41,5.46,5.46,0,0,1,2.36,2.37,3.31,3.31,0,0,1,.79-1.18,1.93,1.93,0,0,1,2-.48,1.4,1.4,0,0,1,.83.82,4.14,4.14,0,0,1-.31,2.72,2.3,2.3,0,0,1,1.42,2.53,2.47,2.47,0,0,1-1.62,2.3,2.74,2.74,0,0,1-1.08,2.89,1.86,1.86,0,0,1-1.74.45,1.67,1.67,0,0,1-.79-.6,1.35,1.35,0,0,1-.31.19,2.39,2.39,0,0,1-1.95-.07A7.67,7.67,0,0,1,269.77,235.53Zm2.09-11.76a.34.34,0,0,0-.31.14,1.2,1.2,0,0,0,.05,1.12.5.5,0,0,1-.35.85c-.53,0-1.67.19-1.86.74s.77,1.29,1.22,1.56a.52.52,0,0,1,.24.5.5.5,0,0,1-.37.41,3.65,3.65,0,0,0-2.18,1.51c-.05.11,0,.15,0,.17.18.3,1.14.52,1.74.56a.54.54,0,0,1,.43.31.49.49,0,0,1-.09.52,3.59,3.59,0,0,0-1,2.29c.2.22,1.45,0,2.71-.57a.53.53,0,0,1,.41,0,1.7,1.7,0,0,0,1.3.18.64.64,0,0,0,.34-.4.5.5,0,0,1,.48-.36h0a.48.48,0,0,1,.47.36c.05.16.25.65.56.75s.58-.12.81-.29a1.72,1.72,0,0,0,.58-2.23.52.52,0,0,1,0-.5.5.5,0,0,1,.43-.25c.11,0,1.16-.06,1.29-1.51a1.33,1.33,0,0,0-1.17-1.61.52.52,0,0,1-.38-.26.5.5,0,0,1,0-.46,4.14,4.14,0,0,0,.52-2.47.38.38,0,0,0-.25-.24,1,1,0,0,0-1,.27,2.37,2.37,0,0,0-.67,2.16.51.51,0,0,1-.33.62.5.5,0,0,1-.62-.31c-.28-.79-1.29-3-2.58-3.46A1.17,1.17,0,0,0,271.86,223.77Z" style="fill: rgb(38, 50, 56); transform-origin: 273.556px 229.153px;" id="elq294p0o1pgi" class="animable"></path><path d="M276.62,230.58a2,2,0,1,1-2-2A2,2,0,0,1,276.62,230.58Z" style="fill: #FFC53B; transform-origin: 274.62px 230.58px;" id="elnigfzx1z1mm" class="animable"></path><path d="M274.65,233.05a2.47,2.47,0,1,1,2.47-2.47A2.48,2.48,0,0,1,274.65,233.05Zm0-3.94a1.47,1.47,0,1,0,1.47,1.47A1.47,1.47,0,0,0,274.65,229.11Z" style="fill: rgb(38, 50, 56); transform-origin: 274.65px 230.58px;" id="elv4qzzfugtjq" class="animable"></path><path d="M280.07,235.86s2.4-1.42,2.72-3.06-1.52-1.28-1.89-.74c0,0-.32-1.67-1.3-1.8s-1.59,1.58-1.59,1.58-.78-1.59-1.94-1.83-.86,2.06-.86,2.06a3.62,3.62,0,0,0-2.46-.47c-1,.36.72,2.87.72,2.87-.44,1.82.84,1.89.84,1.89s-1.58.78-.25,1.94a2,2,0,0,0,2.56.14,1.64,1.64,0,0,0,2,1.19,1.6,1.6,0,0,0,1.56-1.73s2.67.74,2.89-.56S281.22,235.26,280.07,235.86Z" style="fill: rgb(255, 255, 255); transform-origin: 277.762px 234.837px;" id="elo8jveg18a9f" class="animable"></path><path d="M278.3,240.15a2.15,2.15,0,0,1-1.92-1,2.42,2.42,0,0,1-2.65-.47,1.66,1.66,0,0,1-.69-1.46,1.45,1.45,0,0,1,.35-.76,1.66,1.66,0,0,1-.18-.19,2.13,2.13,0,0,1-.27-1.7c-.41-.61-1.23-2-1-2.82a.92.92,0,0,1,.61-.62,3.22,3.22,0,0,1,2.09.15,2.18,2.18,0,0,1,.52-1.52,1.07,1.07,0,0,1,1-.24,3.2,3.2,0,0,1,1.78,1.3,1.85,1.85,0,0,1,1.71-1c.82.1,1.28.89,1.52,1.5a1.81,1.81,0,0,1,1.37-.05c.29.11.94.52.72,1.68a4.62,4.62,0,0,1-1.55,2.34,2.93,2.93,0,0,1,1,.47,1.73,1.73,0,0,1,.77,1.71,1.29,1.29,0,0,1-.58.89,3.64,3.64,0,0,1-2.36.2,2.06,2.06,0,0,1-1.95,1.62Zm-1.68-2.21.17,0a.52.52,0,0,1,.32.37c0,.15.26.91,1.43.79a1.09,1.09,0,0,0,1.11-1.18.49.49,0,0,1,.18-.43.52.52,0,0,1,.45-.1,3.46,3.46,0,0,0,2.13,0,.29.29,0,0,0,.14-.21.74.74,0,0,0-.38-.73,2,2,0,0,0-1.87-.21.5.5,0,0,1-.67-.2.51.51,0,0,1,.18-.68c.62-.36,2.27-1.56,2.48-2.72.07-.32,0-.51-.11-.57a1,1,0,0,0-.86.2.5.5,0,0,1-.91-.18c-.08-.41-.42-1.34-.87-1.4s-.89.79-1.06,1.25a.5.5,0,0,1-.92.05c-.18-.38-.84-1.4-1.59-1.57-.28.17-.33.94-.26,1.52a.5.5,0,0,1-.75.49,3.07,3.07,0,0,0-2-.42,4.86,4.86,0,0,0,1,2.1.52.52,0,0,1,.08.4,1.41,1.41,0,0,0,.05,1.09.58.58,0,0,0,.33.19.48.48,0,0,1,.46.4.5.5,0,0,1-.27.55c-.15.07-.47.31-.5.54s.21.45.36.58a1.43,1.43,0,0,0,1.91.12A.52.52,0,0,1,276.62,237.94Z" style="fill: rgb(38, 50, 56); transform-origin: 277.7px 234.831px;" id="eli269yt2533j" class="animable"></path><path d="M277.38,237.5a1.71,1.71,0,1,1,1.35-2A1.71,1.71,0,0,1,277.38,237.5Z" style="fill: #FFC53B; transform-origin: 277.051px 235.822px;" id="el8v8vv7tmzd3" class="animable"></path><path d="M277.05,238a2.17,2.17,0,1,1,.43,0h0A3.28,3.28,0,0,1,277.05,238Zm0-3.42-.23,0a1.2,1.2,0,0,0-.95,1.41,1.22,1.22,0,0,0,1.42,1,1.23,1.23,0,0,0,.76-.52,1.19,1.19,0,0,0,.19-.9A1.22,1.22,0,0,0,277.05,234.61Z" style="fill: rgb(38, 50, 56); transform-origin: 277.265px 235.839px;" id="el32qesnhadsm" class="animable"></path><path d="M280.67,272.44a10.89,10.89,0,0,0,.47-13.43,15.45,15.45,0,0,1-3-9.39v-3.49h-5.73v3.49a15.46,15.46,0,0,1-3,9.39,10.61,10.61,0,0,0-2.08,6.43,10.45,10.45,0,0,0,2.56,7Z" style="fill: rgb(38, 50, 56); transform-origin: 275.28px 259.285px;" id="el9fnvz85qh6r" class="animable"></path><path d="M280.89,272.94H269.65l-.15-.17a10.89,10.89,0,0,1-2.68-7.33A11.14,11.14,0,0,1,269,258.7a15,15,0,0,0,2.91-9.08v-4h6.73v4a15,15,0,0,0,2.9,9.08,11.14,11.14,0,0,1,2.19,6.74,10.9,10.9,0,0,1-2.69,7.33Zm-10.79-1h10.34a10.42,10.42,0,0,0,.31-12.63,16,16,0,0,1-3.11-9.69v-3h-4.73v3a16,16,0,0,1-3.11,9.69,10.44,10.44,0,0,0,.3,12.63Z" style="fill: rgb(38, 50, 56); transform-origin: 275.275px 259.28px;" id="elb5zyflbea6" class="animable"></path><polygon points="196.78 274.19 183.07 307.48 186.5 307.48 200.42 274.79 196.78 274.19" style="fill: rgb(255, 255, 255); transform-origin: 191.745px 290.835px;" id="elt5h376ja4p" class="animable"></polygon><path d="M186.83,308h-4.51l14.16-34.35,4.65.77Zm-3-1h2.36l13.54-31.8-2.61-.43Z" style="fill: rgb(38, 50, 56); transform-origin: 191.725px 290.825px;" id="elphbsbp76ul" class="animable"></path><polygon points="285.55 274.19 299.27 307.48 295.84 307.48 281.92 274.79 285.55 274.19" style="fill: rgb(255, 255, 255); transform-origin: 290.595px 290.835px;" id="elpcuv3zazc3" class="animable"></polygon><path d="M300,308h-4.51l-.13-.31L281.21,274.4l4.65-.77Zm-3.85-1h2.36l-13.29-32.23-2.61.43Z" style="fill: rgb(38, 50, 56); transform-origin: 290.605px 290.815px;" id="elsz0xkz2tna" class="animable"></path><rect x="194.77" y="272.37" width="93.21" height="4.44" style="fill: rgb(255, 255, 255); transform-origin: 241.375px 274.59px;" id="elf0k7keojt9o" class="animable"></rect><path d="M288.48,277.31H194.27v-5.44h94.21Zm-93.21-1h92.21v-3.44H195.27Z" style="fill: rgb(38, 50, 56); transform-origin: 241.375px 274.59px;" id="elwirnsqcer9l" class="animable"></path></g><defs>     <filter id="active" height="200%">         <feMorphology in="SourceAlpha" result="DILATED" operator="dilate" radius="2"></feMorphology>                <feFlood flood-color="#32DFEC" flood-opacity="1" result="PINK"></feFlood>        <feComposite in="PINK" in2="DILATED" operator="in" result="OUTLINE"></feComposite>        <feMerge>            <feMergeNode in="OUTLINE"></feMergeNode>            <feMergeNode in="SourceGraphic"></feMergeNode>        </feMerge>    </filter>    <filter id="hover" height="200%">        <feMorphology in="SourceAlpha" result="DILATED" operator="dilate" radius="2"></feMorphology>                <feFlood flood-color="#ff0000" flood-opacity="0.5" result="PINK"></feFlood>        <feComposite in="PINK" in2="DILATED" operator="in" result="OUTLINE"></feComposite>        <feMerge>            <feMergeNode in="OUTLINE"></feMergeNode>            <feMergeNode in="SourceGraphic"></feMergeNode>        </feMerge>            <feColorMatrix type="matrix" values="0   0   0   0   0                0   1   0   0   0                0   0   0   0   0                0   0   0   1   0 "></feColorMatrix>    </filter></defs></svg>